<svg width="280" height="268" viewBox="0 0 280 268" fill="none" xmlns="http://www.w3.org/2000/svg">
<path d="M182.667 256.123C229.795 256.123 268 217.918 268 170.79C268 123.662 229.795 85.4565 182.667 85.4565C135.538 85.4565 97.3333 123.662 97.3333 170.79C97.3333 217.918 135.538 256.123 182.667 256.123Z" stroke="#B5BE30" stroke-width="22.575"/>
<path d="M97.3333 256.123C144.462 256.123 182.667 217.918 182.667 170.79C182.667 123.662 144.462 85.4565 97.3333 85.4565C50.205 85.4565 12 123.662 12 170.79C12 217.918 50.205 256.123 97.3333 256.123Z" stroke="#CEA637" stroke-width="22.575"/>
<path d="M140 182.222C187.128 182.222 225.333 144.017 225.333 96.8885C225.333 49.7602 187.128 11.5552 140 11.5552C92.8718 11.5552 54.6667 49.7602 54.6667 96.8885C54.6667 144.017 92.8718 182.222 140 182.222Z" stroke="#ACCFEF" stroke-width="22.575"/>
<mask id="mask0_2_149" style="mask-type:alpha" maskUnits="userSpaceOnUse" x="43" y="0" width="194" height="194">
<path d="M140 182.221C187.128 182.221 225.333 144.016 225.333 96.888C225.333 49.7597 187.128 11.5547 140 11.5547C92.8713 11.5547 54.6663 49.7597 54.6663 96.888C54.6663 144.016 92.8713 182.221 140 182.221Z" stroke="#ACCFEF" stroke-width="22.575"/>
</mask>
<g mask="url(#mask0_2_149)">
<path d="M182.666 256.123C229.795 256.123 268 217.918 268 170.789C268 123.661 229.795 85.4561 182.666 85.4561C135.538 85.4561 97.333 123.661 97.333 170.789C97.333 217.918 135.538 256.123 182.666 256.123Z" stroke="#B5BE30" stroke-width="22.575"/>
</g>
</svg>
