<svg width="845" height="476" viewBox="0 0 845 476" fill="none" xmlns="http://www.w3.org/2000/svg">
<path d="M155.5 199.689C197.64 199.689 231.801 216.769 231.801 237.839C231.801 258.909 197.64 275.99 155.5 275.99C113.36 275.99 79.199 258.909 79.199 237.839C79.199 216.769 113.36 199.689 155.5 199.689Z" stroke="#966A25" stroke-width="14"/>
<path d="M139.277 132.63C148.578 123.329 161.193 118.104 174.346 118.104H184.266C197.419 118.104 210.034 123.329 219.335 132.63L289.474 202.769C298.775 212.07 304 224.685 304 237.838C304 250.992 298.775 263.607 289.474 272.908L219.335 343.047C210.034 352.348 197.419 357.573 184.266 357.573H174.346C161.193 357.573 148.578 352.348 139.277 343.047L47.2198 250.99C43.7321 247.502 41.7727 242.771 41.7727 237.838C41.7727 232.906 43.7321 228.175 47.2198 224.687L139.277 132.63Z" stroke="black" stroke-width="14"/>
<path d="M139.277 132.63C148.578 123.329 161.193 118.104 174.346 118.104H184.266C197.419 118.104 210.034 123.329 219.335 132.63L289.474 202.769C298.775 212.07 304 224.685 304 237.838C304 250.992 298.775 263.607 289.474 272.908L219.335 343.047C210.034 352.348 197.419 357.573 184.266 357.573H174.346C161.193 357.573 148.578 352.348 139.277 343.047L47.2198 250.99C43.7321 247.502 41.7727 242.771 41.7727 237.838C41.7727 232.906 43.7321 228.175 47.2198 224.687L139.277 132.63Z" stroke="#B5BE30" stroke-width="14"/>
<path d="M91.6651 132.63C100.966 123.329 113.581 118.104 126.735 118.104H136.654C149.807 118.104 162.422 123.329 171.723 132.63L263.78 224.687C267.268 228.175 269.227 232.906 269.227 237.838C269.227 242.771 267.268 247.502 263.78 250.99L171.723 343.047C162.422 352.348 149.807 357.573 136.654 357.573H126.735C113.581 357.573 100.966 352.348 91.6651 343.047L21.5262 272.908C12.2251 263.607 7 250.992 7 237.838C7 224.685 12.2251 212.07 21.5262 202.769L91.6651 132.63Z" stroke="black" stroke-width="14"/>
<path d="M91.6651 132.63C100.966 123.329 113.581 118.104 126.735 118.104H136.654C149.807 118.104 162.422 123.329 171.723 132.63L263.78 224.687C267.268 228.175 269.227 232.906 269.227 237.838C269.227 242.771 267.268 247.502 263.78 250.99L171.723 343.047C162.422 352.348 149.807 357.573 136.654 357.573H126.735C113.581 357.573 100.966 352.348 91.6651 343.047L21.5262 272.908C12.2251 263.607 7 250.992 7 237.838C7 224.685 12.2251 212.07 21.5262 202.769L91.6651 132.63Z" stroke="#CEA637" stroke-width="14"/>
<path d="M208.148 138.648C208.148 109.571 184.577 85.9999 155.5 85.9999C126.423 85.9999 102.852 109.571 102.852 138.648V337.03C102.852 366.107 126.423 389.678 155.5 389.678C184.577 389.678 208.148 366.107 208.148 337.03V138.648Z" stroke="#ACCFEF" stroke-width="14"/>
<path d="M79.199 237.839C79.199 258.909 113.36 275.99 155.5 275.99C197.639 275.99 231.801 258.909 231.801 237.839" stroke="#966A25" stroke-width="14"/>
<path d="M184.266 118.104C197.419 118.104 210.034 123.329 219.335 132.63M219.335 343.047C210.034 352.348 197.419 357.573 184.266 357.573M69.1382 202.769L118.734 153.173M69.1382 272.908L118.734 322.504" stroke="#B5BE30" stroke-width="14"/>
<path d="M682.017 115.905C685.906 112.895 690.08 110.274 694.48 108.079C694.469 107.89 694.471 107.699 694.457 107.508C694.155 103.347 693.509 99.2174 692.524 95.1629C688.547 96.9225 684.707 98.977 681.037 101.309C681.928 106.098 682.262 110.998 682.017 115.905ZM565.234 81.4215C582.529 51.4655 620.834 41.2023 650.79 58.497C662.775 65.3936 672.124 76.0811 677.367 88.8761C680.974 86.7547 684.712 84.8628 688.557 83.2114C682.395 68.7644 671.702 56.1072 657.053 47.6506C621.105 26.8959 575.139 39.212 554.385 75.1584C552.882 77.7731 551.537 80.4753 550.357 83.2504C554.211 84.8895 557.958 86.7684 561.578 88.8761C562.632 86.3139 563.853 83.8237 565.234 81.4215ZM628.453 187.329C627.981 183.36 627.744 179.367 627.744 175.37C627.744 175.181 627.758 174.995 627.758 174.807C622.261 175.549 616.69 175.556 611.192 174.829C611.207 179.01 610.96 183.188 610.454 187.339C616.472 188.062 622.511 188.048 628.453 187.329ZM640.78 184.787C644.783 183.613 648.681 182.109 652.435 180.29C652.608 180.207 652.772 180.109 652.943 180.025C652.848 178.475 652.799 176.923 652.797 175.37C652.797 171.96 653.046 168.61 653.486 165.32C649.378 167.973 644.973 170.137 640.363 171.767C640.308 172.967 640.278 174.169 640.272 175.37C640.272 178.516 640.442 181.66 640.78 184.787ZM598.578 171.782C593.964 170.147 589.558 167.978 585.447 165.321C572.94 157.231 563.732 144.942 559.48 130.667C558.047 125.871 557.192 120.922 556.933 115.923C556.677 111.032 556.998 106.127 557.889 101.311C555.577 99.8421 553.197 98.4827 550.758 97.2367C549.322 96.5105 547.867 95.8236 546.394 95.1768C545.374 99.4137 544.727 103.732 544.46 108.082C544.16 112.99 544.343 117.916 545.005 122.789C547.601 141.913 557.504 159.852 573.533 172.204C576.192 174.261 578.984 176.139 581.893 177.825C587.016 180.781 592.471 183.12 598.143 184.794C598.319 183.202 598.452 181.605 598.54 180.005C598.688 177.271 598.688 174.528 598.578 171.782Z" fill="#B5BE30"/>
<path d="M584.043 192.942C581.165 191.67 578.358 190.245 575.632 188.675C574.594 188.069 573.569 187.442 572.557 186.794C547.471 170.925 533.051 144.205 531.878 116.339C531.514 107.787 532.414 99.2282 534.547 90.9386C530.517 89.8117 526.411 88.9731 522.262 88.4292C521.237 92.4923 520.47 96.6161 519.965 100.776C519.473 104.932 519.243 109.115 519.276 113.3C519.502 147.524 537.251 180.727 568.889 199.227C569.052 199.322 569.206 199.428 569.37 199.521C576.463 203.625 584.035 206.838 591.915 209.09C593.518 205.226 594.845 201.253 595.886 197.201C591.84 196.069 587.882 194.646 584.043 192.942ZM673.714 394.582C656.42 424.537 618.116 434.8 588.158 417.504C576.174 410.608 566.824 399.921 561.58 387.126C557.973 389.248 554.236 391.14 550.39 392.791C556.552 407.238 567.246 419.895 581.894 428.352C617.841 449.106 663.808 436.79 684.562 400.844C686.065 398.229 687.41 395.526 688.59 392.75C684.736 391.111 680.989 389.232 677.369 387.125C676.316 389.688 675.095 392.179 673.714 394.582ZM556.933 360.096C553.044 363.107 548.868 365.728 544.467 367.923C544.479 368.114 544.476 368.303 544.49 368.493C544.792 372.654 545.439 376.783 546.423 380.838C550.4 379.078 554.24 377.024 557.911 374.692C557.022 369.904 556.687 365.005 556.933 360.096ZM610.494 288.673C610.96 292.594 611.203 296.585 611.203 300.632C611.203 300.821 611.189 301.008 611.189 301.196C616.686 300.453 622.258 300.446 627.757 301.173C627.737 296.981 627.993 292.804 628.494 288.664C622.516 287.945 616.472 287.949 610.494 288.673ZM598.168 291.214C594.166 292.389 590.268 293.893 586.513 295.71C586.341 295.795 586.175 295.891 586.004 295.976C586.097 297.516 586.15 299.068 586.15 300.631C586.15 304.04 585.901 307.391 585.461 310.682C589.57 308.029 593.975 305.865 598.586 304.234C598.635 303.038 598.676 301.839 598.676 300.631C598.676 297.485 598.506 294.341 598.168 291.214Z" fill="#B5BE30"/>
<path d="M604.362 264.221C600.172 264.864 596.027 265.771 591.951 266.936C587.92 268.092 583.965 269.497 580.108 271.144C576.261 272.78 572.52 274.656 568.907 276.76C564.529 279.313 560.352 282.196 556.411 285.382L556.41 285.383C549.508 290.97 547.623 300.433 551.306 308.103C551.927 309.398 552.688 310.643 553.632 311.81C555.421 314.017 557.691 315.786 560.268 316.982C563.618 318.544 567.352 319.09 571.009 318.552C572.441 313.756 573.293 308.806 573.545 303.807C573.091 304.159 572.625 304.49 572.178 304.852C570.885 305.881 569.239 306.358 567.597 306.179C565.954 305.999 564.45 305.178 563.41 303.895C562.37 302.611 561.879 300.969 562.045 299.325C562.21 297.681 563.018 296.17 564.293 295.119L564.295 295.118L564.296 295.116C566.938 292.986 569.703 291.012 572.576 289.205C574.89 287.734 577.272 286.373 579.714 285.126C581.145 284.403 582.594 283.719 584.061 283.074C587.914 281.378 591.882 279.959 595.937 278.828C599.967 277.703 604.071 276.865 608.219 276.321C615.705 275.343 623.286 275.336 630.773 276.302C631.802 272.19 633.09 268.146 634.627 264.196C624.596 262.67 614.391 262.679 604.362 264.221ZM700.408 396.95C698.961 400.438 697.291 403.831 695.409 407.106C671.197 449.044 617.57 463.412 575.631 439.198C558.287 429.187 545.676 414.14 538.547 396.975C536.944 393.109 535.618 389.134 534.578 385.08C533.532 381.012 532.778 376.874 532.322 372.699C532.145 371.1 532.012 369.497 531.924 367.891C531.782 365.156 531.77 362.416 531.886 359.68C532.021 356.3 532.333 352.921 532.866 349.551L532.867 349.543C533.155 347.928 534.064 346.49 535.4 345.538C536.736 344.586 538.393 344.196 540.013 344.452C541.634 344.708 543.089 345.59 544.067 346.907C545.044 348.225 545.466 349.874 545.241 351.499C545.239 351.501 545.238 351.503 545.238 351.506V351.515C545.149 352.076 545.094 352.64 545.019 353.202C549.218 350.478 553.076 347.263 556.513 343.625C555.15 340.198 552.813 337.245 549.792 335.13C547.466 333.496 544.799 332.415 541.992 331.969C540.546 331.746 539.079 331.691 537.62 331.807C529.137 332.452 521.885 338.818 520.496 347.588C519.706 352.588 519.298 357.642 519.275 362.704C519.255 366.903 519.512 371.087 520.014 375.235C520.514 379.389 521.273 383.509 522.285 387.569C523.315 391.691 524.605 395.745 526.148 399.704C534.121 420.189 548.848 438.202 569.368 450.05C617.299 477.722 678.585 461.302 706.258 413.373C708.796 408.979 710.999 404.4 712.848 399.675C708.648 399.029 704.494 398.119 700.408 396.95ZM670.06 276.771C669.897 276.676 669.742 276.572 669.58 276.477C662.486 272.372 654.914 269.158 647.034 266.907C645.43 270.771 644.103 274.744 643.063 278.796C647.107 279.929 651.065 281.353 654.904 283.056C657.781 284.328 660.589 285.752 663.315 287.322C664.362 287.926 665.378 288.562 666.39 289.202C691.476 305.072 705.898 331.793 707.069 359.657C707.436 368.21 706.536 376.769 704.4 385.058C708.43 386.186 712.536 387.024 716.686 387.567C717.711 383.504 718.478 379.38 718.983 375.219C719.483 371.045 719.7 366.864 719.672 362.697C719.45 328.474 701.698 295.271 670.06 276.771Z" fill="#B5BE30"/>
<path d="M693.94 353.21C691.344 334.087 681.443 316.146 665.412 303.795C662.754 301.738 659.961 299.86 657.053 298.174C651.93 295.217 646.474 292.879 640.801 291.206C640.625 292.799 640.492 294.396 640.404 295.996C640.264 298.734 640.252 301.478 640.368 304.218C644.981 305.854 649.388 308.023 653.5 310.679C666.007 318.769 675.215 331.058 679.467 345.334C680.9 350.129 681.755 355.078 682.014 360.076C682.266 364.929 681.958 369.833 681.058 374.689C683.37 376.157 685.75 377.517 688.189 378.764C689.624 379.49 691.079 380.176 692.551 380.822C693.572 376.585 694.219 372.267 694.486 367.917C694.788 362.989 694.599 358.063 693.94 353.21ZM687.642 167.897C687.014 166.576 686.233 165.332 685.317 164.191C683.527 161.984 681.257 160.216 678.68 159.019C675.331 157.457 671.596 156.911 667.94 157.449C666.506 162.244 665.655 167.194 665.404 172.192C665.858 171.842 666.324 171.51 666.771 171.148C668.062 170.103 669.715 169.614 671.367 169.788C673.019 169.961 674.534 170.784 675.579 172.075C676.097 172.714 676.484 173.449 676.717 174.237C676.951 175.026 677.027 175.852 676.941 176.67C676.856 177.488 676.609 178.28 676.217 179.003C675.825 179.726 675.294 180.364 674.655 180.881L674.654 180.883L674.652 180.884C672.01 183.015 669.246 184.988 666.373 186.795C664.058 188.266 661.676 189.627 659.234 190.875C654.045 193.499 648.611 195.609 643.011 197.173C638.981 198.298 634.877 199.136 630.728 199.679C623.242 200.658 615.661 200.664 608.174 199.697C607.145 203.81 605.857 207.853 604.32 211.803C614.351 213.331 624.556 213.323 634.585 211.781C642.928 210.501 651.077 208.175 658.839 204.858C662.686 203.221 666.427 201.346 670.04 199.242C674.418 196.689 678.595 193.806 682.536 190.62C689.439 185.03 691.326 175.568 687.642 167.897ZM718.933 100.769C718.433 96.6136 717.674 92.4938 716.662 88.4331C715.631 84.3112 714.341 80.2585 712.799 76.2992C704.826 55.8145 690.099 37.8003 669.578 25.9518C621.648 -1.71883 560.361 14.7018 532.689 62.6316C530.152 67.0247 527.949 71.6029 526.1 76.3271C530.3 76.9722 534.455 77.8815 538.54 79.0495C539.987 75.5613 541.657 72.1694 543.538 68.8948C567.751 26.9567 621.378 12.5876 663.318 36.801C679.998 46.3998 693.036 61.2454 700.401 79.0258C702.005 82.8914 703.331 86.8662 704.37 90.9202C705.416 94.988 706.17 99.1253 706.627 103.3C706.803 104.899 706.936 106.502 707.025 108.108C707.171 110.837 707.172 113.578 707.062 116.321C706.933 119.713 706.606 123.095 706.082 126.449L706.081 126.455C705.822 128.095 704.921 129.567 703.578 130.544C702.234 131.521 700.557 131.924 698.917 131.665C697.276 131.406 695.805 130.505 694.828 129.161C693.852 127.818 693.448 126.141 693.708 124.501L693.709 124.494L693.711 124.484C693.8 123.923 693.853 123.359 693.929 122.797C689.731 125.522 685.873 128.737 682.435 132.374C683.799 135.802 686.136 138.756 689.158 140.871C691.484 142.503 694.151 143.584 696.958 144.032C698.436 144.266 699.899 144.302 701.329 144.193C709.812 143.549 717.065 137.183 718.454 128.413C719.249 123.384 719.651 118.331 719.675 113.296C719.688 109.109 719.44 104.925 718.933 100.769Z" fill="#B5BE30"/>
<path d="M456.751 206.684C439.455 176.728 449.72 138.422 479.677 121.127C491.642 114.197 505.572 111.443 519.274 113.3C519.246 109.131 519.464 104.95 519.963 100.776C504.371 98.8891 488.063 101.822 473.415 110.28C437.466 131.034 425.15 177 445.903 212.947C447.417 215.555 449.085 218.071 450.897 220.481C454.244 217.963 457.745 215.657 461.38 213.577C459.688 211.383 458.141 209.081 456.751 206.684ZM580.08 204.887C576.407 203.311 572.83 201.519 569.368 199.521C569.204 199.427 569.05 199.322 568.887 199.228C566.781 204.36 564.002 209.188 560.622 213.587C564.251 215.665 567.746 217.967 571.087 220.481C574.699 215.662 577.719 210.427 580.08 204.887ZM531.876 116.34C536.489 117.971 540.896 120.135 545.006 122.789C544.344 117.916 544.161 112.99 544.46 108.082C544.291 107.997 544.126 107.901 543.957 107.819C540.201 106 536.301 104.495 532.297 103.321C531.834 107.644 531.693 111.995 531.876 116.34ZM584.042 192.941C585.026 188.887 585.673 184.76 585.975 180.6C585.989 180.409 585.988 180.217 585.999 180.025C584.609 179.333 583.24 178.599 581.895 177.824C578.986 176.138 576.194 174.26 573.535 172.203C573.779 177.088 573.451 181.984 572.557 186.793C573.569 187.433 574.586 188.069 575.632 188.674C578.357 190.245 581.164 191.67 584.042 192.941Z" fill="#ACCFEF"/>
<path d="M609.971 159.695C608.582 150.924 601.33 144.558 592.846 143.913C591.387 143.796 589.919 143.85 588.473 144.073C585.667 144.52 583 145.601 580.676 147.234C577.647 149.354 575.308 152.315 573.946 155.752C577.383 159.391 581.244 162.603 585.447 165.319C585.37 164.752 585.316 164.182 585.226 163.613C585.097 162.801 585.129 161.971 585.321 161.171C585.513 160.371 585.861 159.617 586.345 158.952C586.828 158.286 587.438 157.723 588.139 157.293C588.841 156.864 589.62 156.576 590.432 156.448C591.244 156.319 592.074 156.352 592.873 156.543C593.673 156.735 594.427 157.083 595.092 157.566C595.757 158.049 596.32 158.658 596.75 159.359C597.18 160.06 597.467 160.839 597.596 161.651L597.597 161.652V161.653C598.129 165.022 598.441 168.402 598.576 171.779C598.692 174.519 598.68 177.263 598.54 180.002C598.452 181.601 598.319 183.198 598.143 184.791C597.686 188.976 596.93 193.122 595.881 197.199C594.842 201.251 593.515 205.224 591.911 209.088C589.016 216.06 585.23 222.629 580.649 228.63C583.696 231.577 586.554 234.713 589.206 238.019C595.544 230.096 600.64 221.255 604.319 211.799C605.856 207.849 607.143 203.805 608.172 199.693C609.188 195.625 609.948 191.497 610.449 187.334C610.949 183.193 611.207 179.016 611.187 174.824C611.168 169.757 610.762 164.7 609.971 159.695ZM574.059 97.4922C570.123 94.3083 565.951 91.4282 561.579 88.8769C557.96 86.7692 554.212 84.8903 550.358 83.2512C546.51 81.6068 542.563 80.2035 538.54 79.0493C534.455 77.8812 530.3 76.9719 526.1 76.3269C504.372 72.9907 481.409 76.7361 460.888 88.5846C412.958 116.257 396.536 177.544 424.207 225.474C426.743 229.867 429.607 234.064 432.773 238.028C435.431 234.713 438.296 231.569 441.351 228.616C439.054 225.619 436.951 222.477 435.056 219.21C410.844 177.272 425.213 123.646 467.153 99.4324C483.805 89.7853 503.181 85.917 522.261 88.4301C526.411 88.974 530.517 89.8126 534.547 90.9395C538.593 92.0684 542.553 93.4842 546.397 95.1762C547.87 95.823 549.325 96.5099 550.76 97.2361C553.199 98.4824 555.579 99.8418 557.892 101.31C560.765 103.119 563.531 105.093 566.175 107.224L566.18 107.228C567.471 108.273 568.295 109.788 568.469 111.44C568.644 113.092 568.155 114.745 567.11 116.037C566.065 117.328 564.55 118.152 562.898 118.326C561.246 118.5 559.592 118.011 558.301 116.966L558.295 116.962C558.293 116.961 558.29 116.959 558.288 116.957C557.846 116.599 557.385 116.271 556.936 115.923C557.195 120.921 558.05 125.87 559.483 130.666C563.118 131.195 566.855 130.659 570.202 129.093C572.779 127.896 575.05 126.127 576.84 123.92C577.757 122.78 578.538 121.537 579.166 120.215C582.847 112.545 580.96 103.08 574.059 97.4922ZM572.346 238.03C567.082 243.163 561.201 247.622 554.837 251.304C553.793 251.9 552.737 252.474 551.67 253.027C525.383 266.817 495.033 265.947 470.315 253.03C462.726 249.07 455.763 244.012 449.652 238.019C446.661 240.946 443.882 244.083 441.336 247.404C444.342 250.323 447.53 253.049 450.88 255.567C454.232 258.071 457.74 260.362 461.381 262.425C491.134 279.342 528.763 280.573 560.603 262.422C560.767 262.329 560.934 262.248 561.097 262.153C568.198 258.062 574.768 253.111 580.658 247.413C578.113 244.092 575.335 240.957 572.346 238.03Z" fill="#ACCFEF"/>
<path d="M558.781 227.13C556.48 225.639 554.11 224.256 551.678 222.987C547.955 226.164 543.874 228.896 539.518 231.128C535.064 233.409 530.352 235.147 525.483 236.304C515.961 238.564 506.042 238.559 496.522 236.287C491.653 235.13 486.94 233.396 482.482 231.122C478.117 228.899 474.03 226.168 470.305 222.988C467.876 224.256 465.509 225.637 463.211 227.127C461.864 228.007 460.542 228.924 459.245 229.876C462.404 232.879 465.82 235.598 469.454 238.003C473.556 240.717 477.913 243.022 482.465 244.884C500.325 252.198 520.812 252.592 539.524 244.886C542.635 243.612 545.657 242.132 548.572 240.457C553.692 237.497 558.445 233.943 562.731 229.868C561.439 228.92 560.122 228.007 558.781 227.13ZM782.196 269.317C799.491 299.272 789.228 337.576 759.269 354.871C747.304 361.801 733.375 364.555 719.673 362.7C719.706 366.884 719.476 371.066 718.984 375.222C734.577 377.108 750.884 374.175 765.532 365.72C801.48 344.965 813.797 298.999 793.044 263.053C791.53 260.444 789.862 257.928 788.049 255.518C784.702 258.036 781.2 260.342 777.566 262.422C779.258 264.617 780.805 266.92 782.196 269.317ZM654.905 283.06C653.921 287.114 653.274 291.242 652.972 295.403C652.958 295.594 652.959 295.784 652.948 295.975C654.329 296.664 655.698 297.395 657.053 298.175C659.961 299.861 662.753 301.739 665.412 303.797C665.168 298.912 665.497 294.016 666.39 289.208C665.378 288.56 664.353 287.933 663.316 287.328C660.59 285.756 657.783 284.331 654.905 283.06ZM658.868 271.114C662.541 272.689 666.118 274.481 669.579 276.48C669.742 276.574 669.896 276.679 670.059 276.773C672.165 271.642 674.944 266.813 678.324 262.414C674.695 260.336 671.2 258.034 667.859 255.52C664.247 260.339 661.228 265.575 658.868 271.114ZM707.07 359.661C702.457 358.03 698.05 355.865 693.94 353.21C694.598 358.062 694.787 362.988 694.485 367.919C694.655 368.004 694.819 368.1 694.991 368.182C698.746 370.001 702.646 371.506 706.65 372.68C707.113 368.357 707.254 364.006 707.07 359.661Z" fill="#ACCFEF"/>
<path d="M814.742 250.528C812.205 246.134 809.341 241.937 806.175 237.973C803.517 241.288 800.652 244.431 797.597 247.384C799.894 250.382 801.997 253.525 803.892 256.792C828.104 298.728 813.735 352.355 771.796 376.567C755.144 386.215 735.768 390.084 716.687 387.57C712.537 387.027 708.432 386.189 704.401 385.061C700.356 383.933 696.396 382.517 692.552 380.824C691.079 380.178 689.625 379.491 688.19 378.766C685.75 377.519 683.37 376.159 681.058 374.691C678.184 372.884 675.419 370.909 672.777 368.778L672.771 368.773C671.5 367.721 670.695 366.211 670.53 364.57C670.366 362.928 670.856 361.288 671.893 360.006C672.931 358.724 674.433 357.902 676.072 357.721C677.712 357.539 679.357 358.011 680.65 359.036L680.654 359.041C680.66 359.041 680.66 359.044 680.663 359.045C681.104 359.403 681.566 359.731 682.014 360.078C681.754 355.08 680.899 350.131 679.467 345.336C675.817 344.803 672.091 345.35 668.747 346.909C666.17 348.106 663.9 349.876 662.11 352.083C661.194 353.224 660.413 354.466 659.784 355.787C656.101 363.456 657.987 372.922 664.888 378.507C668.823 381.691 672.996 384.571 677.368 387.122C680.987 389.23 684.735 391.109 688.589 392.748C692.438 394.392 696.385 395.795 700.407 396.95C704.492 398.119 708.647 399.028 712.847 399.672C734.573 403.007 757.537 399.262 778.058 387.415C825.99 359.744 842.412 298.458 814.742 250.528ZM653.502 310.683C653.578 311.25 653.632 311.82 653.723 312.389C653.979 314.028 653.574 315.701 652.598 317.042C651.622 318.383 650.153 319.282 648.515 319.542C646.877 319.801 645.203 319.401 643.86 318.427C642.516 317.454 641.614 315.988 641.351 314.35V314.347C640.829 310.994 640.501 307.613 640.371 304.222C640.255 301.482 640.267 298.738 640.407 295.999C640.494 294.398 640.63 292.801 640.804 291.21C641.261 287.02 642.019 282.874 643.066 278.802C645.982 267.408 651.162 256.719 658.298 247.37C655.251 244.423 652.393 241.287 649.741 237.98C643.403 245.903 638.307 254.744 634.629 264.2C633.091 268.151 631.804 272.194 630.775 276.306C629.759 280.375 628.999 284.503 628.498 288.667C627.991 292.817 627.745 296.995 627.76 301.176C627.784 306.216 628.184 311.275 628.979 316.308V316.31C630.367 325.081 637.62 331.444 646.104 332.09C647.535 332.199 648.995 332.162 650.477 331.929C653.283 331.483 655.95 330.402 658.274 328.769C661.302 326.649 663.641 323.687 665.003 320.251C661.567 316.612 657.705 313.4 653.502 310.683ZM769.494 237.999C765.392 235.286 761.033 232.98 756.482 231.117C738.622 223.803 718.135 223.409 699.423 231.115C696.312 232.389 693.289 233.869 690.375 235.544C685.254 238.504 680.501 242.058 676.216 246.134C677.508 247.083 678.825 247.996 680.166 248.874C682.468 250.365 684.838 251.748 687.27 253.017C690.993 249.84 695.074 247.108 699.43 244.876C703.884 242.595 708.597 240.857 713.466 239.7C722.988 237.44 732.907 237.446 742.426 239.717C747.294 240.873 752.008 242.607 756.465 244.882C760.83 247.106 764.918 249.836 768.643 253.017C771.071 251.749 773.439 250.367 775.737 248.878C777.085 247.998 778.407 247.082 779.703 246.129C776.544 243.125 773.128 240.405 769.494 237.999Z" fill="#ACCFEF"/>
<path d="M788.068 220.433C784.715 217.929 781.208 215.639 777.568 213.574C747.815 196.657 710.186 195.428 678.344 213.577C678.18 213.67 678.013 213.751 677.85 213.846C670.75 217.937 664.181 222.888 658.291 228.586C660.836 231.907 663.613 235.043 666.603 237.97C669.606 235.034 672.818 232.318 676.212 229.845C678.752 227.988 681.39 226.269 684.113 224.693C685.157 224.098 686.212 223.524 687.278 222.972C713.565 209.18 743.915 210.052 768.634 222.969C776.222 226.93 783.185 231.988 789.298 237.98C792.289 235.052 795.068 231.916 797.614 228.595C794.606 225.678 791.417 222.952 788.068 220.433Z" fill="#ACCFEF"/>
<path d="M562.736 246.156C559.718 243.277 556.466 240.653 553.014 238.311C552.856 238.204 552.689 238.108 552.529 238.002C551.235 238.861 549.915 239.68 548.572 240.458C545.657 242.133 542.635 243.613 539.524 244.886C543.876 247.118 547.952 249.851 551.67 253.028C552.737 252.476 553.793 251.901 554.836 251.305C557.559 249.73 560.196 248.011 562.736 246.156ZM482.465 244.885C477.913 243.023 473.555 240.718 469.454 238.004C469.296 238.11 469.13 238.203 468.973 238.309C465.52 240.651 462.267 243.276 459.248 246.156C462.761 248.72 466.46 251.018 470.314 253.031C474.033 249.851 478.111 247.117 482.465 244.885ZM510.991 363.264C476.401 363.264 448.36 335.223 448.361 300.631C448.342 286.804 452.922 273.364 461.38 262.426C457.74 260.363 454.232 258.072 450.879 255.569C441.45 268.128 435.835 283.718 435.835 300.631C435.835 342.141 469.483 375.789 510.991 375.791C514.046 375.791 517.053 375.587 520.013 375.232C519.506 371.075 519.259 366.89 519.274 362.702C516.529 363.071 513.762 363.258 510.991 363.264ZM571.1 255.56C567.899 257.954 564.559 260.155 561.097 262.153C560.934 262.248 560.767 262.329 560.603 262.422C563.994 266.811 566.786 271.633 568.906 276.759C572.52 274.656 576.261 272.78 580.107 271.143C577.741 265.606 574.717 260.374 571.1 255.56Z" fill="#CEA637"/>
<path d="M589.209 238.024C586.557 234.718 583.699 231.582 580.652 228.635C577.636 225.721 574.441 222.999 571.086 220.483C567.745 217.969 564.25 215.667 560.621 213.59C556.221 211.075 551.636 208.899 546.906 207.08C538.616 203.897 529.478 206.994 524.676 214.02C523.846 215.225 523.159 216.522 522.628 217.886C521.612 220.539 521.215 223.389 521.468 226.219C521.79 229.901 523.185 233.409 525.479 236.307C530.348 235.15 535.06 233.413 539.514 231.131C538.984 230.912 538.463 230.674 537.926 230.468C537.158 230.173 536.456 229.73 535.859 229.164C535.263 228.598 534.783 227.92 534.449 227.168C534.114 226.417 533.931 225.607 533.91 224.785C533.888 223.963 534.029 223.144 534.324 222.376C534.618 221.609 535.061 220.906 535.627 220.31C536.193 219.713 536.871 219.234 537.622 218.9C538.374 218.565 539.183 218.382 540.005 218.36C540.827 218.339 541.645 218.48 542.413 218.774H542.417C545.583 219.998 548.674 221.405 551.676 222.989C554.107 224.258 556.477 225.64 558.778 227.132C560.123 228.008 561.436 228.925 562.728 229.87C566.124 232.358 569.337 235.086 572.344 238.033C575.334 240.959 578.111 244.095 580.656 247.415C585.247 253.408 589.043 259.97 591.949 266.938C596.025 265.773 600.17 264.866 604.36 264.223C600.668 254.772 595.559 245.938 589.209 238.024ZM522.286 387.568C518.541 388.059 514.769 388.309 510.992 388.317C462.566 388.317 423.31 349.059 423.31 300.632C423.282 281.387 429.62 262.673 441.335 247.405C443.881 244.084 446.66 240.947 449.652 238.02C452.652 235.081 455.858 232.359 459.245 229.875C460.542 228.923 461.864 228.006 463.211 227.127C465.509 225.637 467.877 224.256 470.305 222.987C473.307 221.403 476.399 219.995 479.566 218.772L479.573 218.769C481.118 218.197 482.827 218.258 484.328 218.938C485.829 219.617 487.002 220.861 487.592 222.4C488.182 223.938 488.143 225.647 487.481 227.156C486.82 228.666 485.591 229.854 484.06 230.463L484.052 230.466C483.52 230.669 483.006 230.904 482.48 231.12C486.938 233.394 491.652 235.128 496.521 236.285C498.807 233.39 500.197 229.89 500.518 226.215C500.77 223.384 500.373 220.533 499.356 217.879C498.826 216.516 498.14 215.218 497.31 214.013C492.511 206.988 483.371 203.892 475.081 207.072C470.356 208.888 465.775 211.062 461.379 213.573C457.744 215.654 454.243 217.96 450.896 220.476C447.548 222.987 444.359 225.704 441.349 228.612C438.295 231.565 435.43 234.708 432.772 238.023C419.019 255.172 410.781 276.931 410.781 300.625C410.782 355.971 455.646 400.836 510.99 400.837C516.143 400.837 521.203 400.446 526.147 399.696C524.604 395.739 523.315 391.688 522.286 387.568ZM610.494 288.674C609.995 284.513 609.235 280.388 608.217 276.323C604.065 276.866 599.962 277.706 595.935 278.83C596.976 282.899 597.723 287.038 598.168 291.214C598.499 294.309 598.679 297.448 598.679 300.632C598.679 301.84 598.635 303.039 598.588 304.236C597.387 333.897 581.458 359.745 557.912 374.692C550.688 379.284 542.826 382.785 534.58 385.082C535.619 389.136 536.946 393.111 538.549 396.976C542.581 395.832 546.537 394.435 550.392 392.791C554.237 391.139 557.975 389.247 561.583 387.127C591.11 369.819 610.989 337.848 611.191 301.197C611.191 301.008 611.205 300.822 611.205 300.634C611.204 296.637 610.967 292.643 610.494 288.674Z" fill="#CEA637"/>
<path d="M586.003 295.978C585.73 291.629 585.08 287.312 584.06 283.075C582.593 283.72 581.143 284.404 579.713 285.127C577.271 286.374 574.889 287.736 572.575 289.206C573.464 294.019 573.789 298.92 573.543 303.808C573.292 308.807 572.441 313.757 571.007 318.553C568.204 327.929 563.239 336.517 556.513 343.625C553.076 347.263 549.218 350.478 545.019 353.202C540.911 355.87 536.502 358.045 531.885 359.681C531.769 362.417 531.781 365.157 531.922 367.892C532.011 369.498 532.144 371.101 532.32 372.7C536.5 371.465 540.564 369.866 544.464 367.922C548.866 365.727 553.041 363.105 556.931 360.094C572.193 348.286 582.778 330.739 585.46 310.682C585.9 307.392 586.149 304.042 586.149 300.63C586.148 299.078 586.1 297.527 586.003 295.978ZM756.48 231.116C761.033 232.979 765.391 235.284 769.492 237.999C769.65 237.894 769.815 237.8 769.974 237.694C773.427 235.351 776.679 232.726 779.699 229.846C776.186 227.282 772.487 224.984 768.632 222.971C764.913 226.15 760.834 228.884 756.48 231.116ZM727.955 112.737C762.544 112.737 790.585 140.778 790.584 175.37C790.604 189.197 786.024 202.637 777.565 213.575C781.205 215.639 784.712 217.93 788.065 220.434C797.494 207.874 803.11 192.283 803.11 175.371C803.11 133.862 769.462 100.213 727.954 100.212C724.899 100.212 721.892 100.415 718.932 100.77C719.433 104.918 719.691 109.102 719.67 113.301C722.416 112.93 725.184 112.742 727.955 112.737ZM676.21 229.846C679.228 232.725 682.48 235.348 685.932 237.69C686.091 237.797 686.258 237.892 686.416 237.997C687.71 237.139 689.03 236.32 690.373 235.542C693.288 233.867 696.311 232.387 699.422 231.113C695.069 228.882 690.993 226.15 687.275 222.971C686.215 223.527 685.157 224.089 684.11 224.693C681.388 226.27 678.751 227.99 676.21 229.846ZM667.846 220.44C671.046 218.046 674.386 215.845 677.847 213.847C678.011 213.752 678.178 213.671 678.341 213.578C674.95 209.188 672.158 204.367 670.039 199.241C666.426 201.344 662.685 203.22 658.838 204.857C661.205 210.394 664.229 215.625 667.846 220.44ZM700.399 79.0259C696.367 80.1698 692.412 81.5672 688.557 83.2097C684.712 84.8616 680.975 86.7536 677.367 88.8743C647.84 106.182 627.96 138.154 627.757 174.805C627.757 174.994 627.743 175.181 627.743 175.369C627.743 179.416 627.985 183.405 628.452 187.327C628.953 191.532 629.725 195.65 630.729 199.678C634.877 199.134 638.982 198.297 643.011 197.171C641.97 193.102 641.224 188.963 640.779 184.787C640.441 181.659 640.271 178.516 640.268 175.37C640.268 174.162 640.311 172.964 640.359 171.767C641.558 142.106 657.489 116.257 681.036 101.309C688.259 96.7174 696.121 93.2168 704.367 90.9203C703.328 86.8663 702.002 82.8914 700.399 79.0259Z" fill="#CEA637"/>
<path d="M707.021 108.109C706.932 106.503 706.8 104.9 706.623 103.302C702.443 104.537 698.379 106.136 694.478 108.08C690.077 110.274 685.903 112.896 682.014 115.906C666.75 127.715 656.164 145.262 653.482 165.319C653.03 168.65 652.8 172.008 652.793 175.37C652.795 181.284 653.497 187.177 654.884 192.926C656.351 192.282 657.8 191.597 659.23 190.873C661.672 189.626 664.055 188.264 666.369 186.794C665.479 181.98 665.154 177.079 665.4 172.191C665.655 167.09 666.532 162.156 667.936 157.447C670.739 148.071 675.704 139.483 682.43 132.375C685.867 128.737 689.726 125.522 693.924 122.798C698.001 120.154 702.4 117.968 707.057 116.321C707.168 113.579 707.168 110.838 707.021 108.109ZM727.955 75.1577C722.803 75.1577 717.742 75.5488 712.798 76.299C714.34 80.2583 715.63 84.3109 716.661 88.4328C720.406 87.9422 724.178 87.6921 727.955 87.684C776.381 87.684 815.637 126.942 815.635 175.368C815.665 194.614 809.328 213.329 797.611 228.597C795.065 231.918 792.286 235.055 789.295 237.982C786.295 240.922 783.088 243.644 779.7 246.127C778.403 247.079 777.081 247.995 775.735 248.875C773.436 250.365 771.069 251.746 768.641 253.015C765.639 254.599 762.546 256.006 759.38 257.229C759.375 257.23 759.375 257.232 759.373 257.231C757.825 257.814 756.109 257.762 754.599 257.085C753.09 256.407 751.91 255.161 751.317 253.616C750.723 252.072 750.765 250.356 751.433 248.843C752.1 247.329 753.339 246.141 754.88 245.538L754.885 245.536C754.888 245.532 754.891 245.534 754.894 245.532C755.424 245.329 755.939 245.094 756.464 244.878C752.006 242.604 747.293 240.87 742.424 239.713C740.138 242.607 738.748 246.107 738.426 249.782C738.189 252.53 738.534 255.368 739.589 258.117C740.12 259.48 740.806 260.777 741.634 261.982C746.434 269.007 755.574 272.105 763.863 268.922C768.588 267.105 773.169 264.932 777.565 262.422C781.2 260.341 784.701 258.035 788.048 255.517C791.396 253.006 794.584 250.289 797.595 247.382C800.649 244.429 803.514 241.285 806.172 237.971C819.925 220.822 828.162 199.062 828.163 175.368C828.163 120.024 783.299 75.1591 727.955 75.1577ZM717.476 249.784C717.154 246.102 715.759 242.595 713.465 239.696C708.596 240.853 703.883 242.591 699.429 244.873C699.959 245.09 700.479 245.328 701.017 245.534C702.56 246.134 703.803 247.321 704.473 248.835C705.143 250.35 705.186 252.068 704.593 253.614C704 255.16 702.819 256.408 701.308 257.086C699.798 257.763 698.08 257.815 696.531 257.229H696.528C693.363 256.006 690.271 254.599 687.27 253.015C684.838 251.745 682.468 250.362 680.166 248.871C678.824 247.995 677.507 247.081 676.216 246.132C672.821 243.644 669.608 240.917 666.601 237.971C663.612 235.044 660.834 231.908 658.289 228.587C653.699 222.593 649.903 216.031 646.996 209.064C642.92 210.229 638.775 211.136 634.585 211.779C638.278 221.23 643.388 230.064 649.738 237.978C655.018 244.563 661.107 250.457 667.861 255.52C671.202 258.034 674.697 260.336 678.326 262.414C682.726 264.928 687.311 267.105 692.041 268.923C700.331 272.106 709.469 269.008 714.271 261.984C715.101 260.778 715.788 259.48 716.318 258.116C717.333 255.463 717.729 252.613 717.476 249.784Z" fill="#CEA637"/>
</svg>
