<svg width="622" height="821" viewBox="0 0 622 821" fill="none" xmlns="http://www.w3.org/2000/svg">
<circle cx="75" cy="75" r="73" transform="matrix(-1 0 0 1 622 211.5)" fill="white"/>
<circle cx="75" cy="75" r="73" transform="matrix(-1 0 0 1 622 211.5)" stroke="url(#paint0_linear_40_2212)" stroke-width="4"/>
<circle cx="75" cy="75" r="73" transform="matrix(-1 0 0 1 622 211.5)" stroke="url(#paint1_radial_40_2212)" stroke-opacity="0.6" stroke-width="4"/>
<g filter="url(#filter0_di_40_2212)">
<path fill-rule="evenodd" clip-rule="evenodd" d="M575.596 257.5C575.596 256.395 574.7 255.5 573.596 255.5H554.196C553.091 255.5 552.196 256.395 552.196 257.5C552.196 258.605 553.091 259.5 554.196 259.5H563.606L559.115 268.786H531.235L535.453 258.243C535.699 257.627 535.624 256.928 535.252 256.379C534.88 255.829 534.259 255.5 533.596 255.5H517.696C513.664 255.5 510.396 258.768 510.396 262.8C510.396 266.832 513.664 270.1 517.696 270.1H519.196C520.3 270.1 521.196 269.205 521.196 268.1C521.196 266.995 520.3 266.1 519.196 266.1H517.696C515.873 266.1 514.396 264.623 514.396 262.8C514.396 260.977 515.873 259.5 517.696 259.5H530.641L521.657 281.96C520.352 281.659 518.992 281.5 517.596 281.5C507.655 281.5 499.596 289.559 499.596 299.5C499.596 309.441 507.655 317.5 517.596 317.5C527.537 317.5 535.596 309.441 535.596 299.5C535.596 292.368 531.448 286.205 525.433 283.291L528.635 275.286L540.668 295.469C539.869 296.537 539.395 297.863 539.395 299.3C539.395 302.835 542.261 305.7 545.795 305.7C548.164 305.7 550.233 304.413 551.339 302.5H560.246C560.34 303.053 560.461 303.606 560.609 304.159C563.182 313.761 573.052 319.46 582.654 316.887C592.257 314.314 597.955 304.444 595.382 294.841C592.809 285.239 582.939 279.54 573.337 282.113C572.236 282.408 571.186 282.799 570.194 283.275L562.64 270.684L568.05 259.5H573.596C574.7 259.5 575.596 258.605 575.596 257.5ZM572.264 286.725C572.935 286.425 573.639 286.173 574.372 285.977C581.841 283.976 589.517 288.408 591.518 295.876C593.52 303.345 589.088 311.022 581.619 313.023C574.15 315.024 566.474 310.592 564.473 303.123C564.417 302.916 564.366 302.708 564.32 302.5H573.357C574.628 304.278 576.912 305.174 579.148 304.575C582.029 303.803 583.738 300.842 582.967 297.961C582.223 295.186 579.447 293.497 576.669 294.068L572.264 286.725ZM573.323 296.266L568.884 288.867C566.066 291.285 564.295 294.759 564.027 298.5H572.418C572.548 297.692 572.861 296.929 573.323 296.266ZM560.018 298.5C560.304 293.354 562.803 288.575 566.803 285.397L560.558 274.988L550.755 295.254C551.496 296.162 551.993 297.278 552.146 298.5H560.018ZM523.942 287.018C528.485 289.332 531.596 294.053 531.596 299.5C531.596 307.232 525.328 313.5 517.596 313.5C509.864 313.5 503.596 307.232 503.596 299.5C503.596 291.768 509.864 285.5 517.596 285.5C518.468 285.5 519.321 285.58 520.149 285.732L516.871 293.925C514.135 294.189 511.996 296.494 511.996 299.3C511.996 302.282 514.413 304.7 517.396 304.7C520.378 304.7 522.796 302.282 522.796 299.3C522.796 297.576 521.987 296.04 520.729 295.051L523.942 287.018ZM531.802 272.786L543.954 293.169C544.537 292.994 545.155 292.9 545.795 292.9C546.334 292.9 546.857 292.967 547.357 293.092L557.18 272.786H531.802Z" fill="#392A13"/>
</g>
<path opacity="0.2" fill-rule="evenodd" clip-rule="evenodd" d="M518.596 317.473C518.265 317.491 517.931 317.5 517.596 317.5C517.26 317.5 516.927 317.491 516.596 317.473C512.378 317.242 508.547 315.559 505.594 312.915C505.346 312.693 505.104 312.464 504.868 312.228C504.632 311.992 504.403 311.75 504.18 311.501C501.537 308.548 499.854 304.717 499.623 300.5C499.605 300.169 499.596 299.835 499.596 299.5C499.596 299.164 499.605 298.831 499.623 298.5C499.854 294.282 501.537 290.452 504.18 287.499C504.402 287.251 504.63 287.01 504.865 286.775C504.866 286.774 504.867 286.773 504.868 286.772C504.869 286.771 504.87 286.77 504.871 286.769C505.106 286.534 505.347 286.306 505.594 286.084C508.547 283.441 512.378 281.758 516.596 281.527C516.927 281.509 517.26 281.5 517.596 281.5C517.931 281.5 518.265 281.509 518.596 281.527C522.813 281.758 526.644 283.441 529.597 286.084C529.846 286.307 530.088 286.536 530.324 286.772C530.559 287.008 530.789 287.25 531.011 287.499C533.655 290.452 535.337 294.282 535.568 298.5C535.587 298.831 535.596 299.164 535.596 299.5C535.596 299.835 535.587 300.169 535.568 300.5C535.337 304.717 533.655 308.548 531.011 311.501C530.79 311.749 530.561 311.99 530.327 312.225C530.326 312.226 530.325 312.227 530.324 312.228C530.323 312.229 530.322 312.23 530.321 312.231C530.086 312.466 529.844 312.694 529.597 312.915C526.644 315.559 522.813 317.242 518.596 317.473ZM516.596 315.469C512.93 315.243 509.6 313.784 507.011 311.499L516.596 301.914V315.469ZM515.181 300.5L505.597 310.085C503.311 307.496 501.852 304.166 501.626 300.5H515.181ZM501.626 298.5C501.852 294.834 503.311 291.504 505.597 288.915L515.181 298.5H501.626ZM516.596 297.086L507.011 287.501C509.6 285.215 512.93 283.756 516.596 283.531V297.086ZM518.596 283.531C522.262 283.756 525.592 285.215 528.18 287.501L518.596 297.086V283.531ZM520.01 298.5L529.595 288.915C531.88 291.504 533.339 294.834 533.565 298.5H520.01ZM533.565 300.5C533.339 304.166 531.88 307.496 529.595 310.085L520.01 300.5H533.565ZM518.596 301.914V315.469C522.262 315.243 525.592 313.784 528.18 311.499L518.596 301.914Z" fill="#392A13"/>
<path opacity="0.2" fill-rule="evenodd" clip-rule="evenodd" d="M583.613 316.601C583.298 316.705 582.979 316.8 582.654 316.887C582.33 316.973 582.006 317.051 581.681 317.119C577.548 317.988 573.412 317.354 569.876 315.564C569.578 315.414 569.285 315.255 568.996 315.088C568.707 314.922 568.423 314.747 568.143 314.564C564.826 312.396 562.209 309.132 560.894 305.118C560.791 304.802 560.696 304.483 560.609 304.159C560.522 303.835 560.445 303.51 560.377 303.186C559.508 299.052 560.142 294.916 561.931 291.38C562.081 291.083 562.239 290.791 562.405 290.504C562.406 290.502 562.407 290.501 562.407 290.5C562.408 290.499 562.409 290.498 562.409 290.496C562.575 290.209 562.749 289.926 562.931 289.648C565.099 286.33 568.364 283.713 572.378 282.398C572.693 282.295 573.013 282.2 573.337 282.113C573.661 282.026 573.986 281.949 574.31 281.881C578.444 281.012 582.579 281.646 586.116 283.435C586.414 283.586 586.707 283.745 586.996 283.911C587.285 284.078 587.569 284.253 587.848 284.435C591.166 286.604 593.783 289.868 595.097 293.882C595.2 294.197 595.296 294.517 595.382 294.841C595.469 295.165 595.547 295.49 595.615 295.814C596.483 299.948 595.849 304.084 594.06 307.62C593.91 307.916 593.752 308.209 593.586 308.496C593.586 308.498 593.585 308.499 593.584 308.5C593.583 308.501 593.583 308.502 593.582 308.504C593.416 308.791 593.242 309.074 593.06 309.352C590.892 312.67 587.627 315.287 583.613 316.601ZM581.163 315.184C577.563 315.915 573.969 315.367 570.877 313.829L577.655 302.091L581.163 315.184ZM575.923 301.091L569.145 312.829C566.267 310.921 563.996 308.082 562.829 304.599L575.923 301.091ZM562.312 302.667C561.581 299.068 562.128 295.473 563.666 292.381L575.405 299.159L562.312 302.667ZM576.405 297.427L564.666 290.649C566.575 287.772 569.414 285.501 572.897 284.334L576.405 297.427ZM574.828 283.816C578.428 283.085 582.022 283.633 585.114 285.17L578.337 296.909L574.828 283.816ZM580.069 297.909L586.846 286.17C589.724 288.079 591.995 290.918 593.162 294.401L580.069 297.909ZM593.68 296.333C594.41 299.932 593.863 303.526 592.325 306.618L580.586 299.841L593.68 296.333ZM579.586 301.573L583.095 314.666C586.577 313.499 589.416 311.228 591.325 308.35L579.586 301.573Z" fill="#392A13"/>
<circle cx="75" cy="75" r="73" transform="matrix(-1 0 0 1 386 211.5)" fill="white"/>
<circle cx="75" cy="75" r="73" transform="matrix(-1 0 0 1 386 211.5)" stroke="url(#paint2_linear_40_2212)" stroke-width="4"/>
<circle cx="75" cy="75" r="73" transform="matrix(-1 0 0 1 386 211.5)" stroke="url(#paint3_radial_40_2212)" stroke-opacity="0.6" stroke-width="4"/>
<g filter="url(#filter1_di_40_2212)">
<path fill-rule="evenodd" clip-rule="evenodd" d="M347.613 316.601C347.298 316.705 346.978 316.8 346.654 316.887C346.33 316.973 346.006 317.051 345.681 317.119C341.548 317.988 337.412 317.354 333.875 315.564C333.578 315.414 333.284 315.255 332.996 315.088C332.707 314.922 332.423 314.747 332.143 314.564C328.826 312.396 326.209 309.132 324.894 305.118C324.791 304.802 324.696 304.483 324.609 304.159C324.522 303.835 324.445 303.51 324.376 303.186C323.508 299.052 324.142 294.916 325.931 291.38C326.081 291.083 326.239 290.791 326.405 290.504L326.406 290.501L326.407 290.5L326.409 290.496C326.575 290.209 326.749 289.926 326.931 289.648C329.099 286.33 332.364 283.713 336.378 282.398C336.693 282.295 337.013 282.2 337.337 282.113C337.661 282.026 337.985 281.949 338.31 281.881C342.443 281.012 346.579 281.646 350.116 283.435C350.413 283.586 350.707 283.745 350.996 283.911C351.284 284.078 351.569 284.253 351.848 284.435C355.165 286.604 357.782 289.868 359.097 293.882C359.2 294.197 359.295 294.517 359.382 294.841C359.469 295.165 359.546 295.49 359.615 295.814C360.483 299.948 359.849 304.084 358.06 307.62C357.91 307.917 357.752 308.209 357.586 308.496L357.584 308.5L357.583 308.501L357.582 308.504C357.416 308.791 357.242 309.074 357.06 309.352C354.892 312.67 351.627 315.287 347.613 316.601ZM335.879 312.094C338.523 313.379 341.579 313.841 344.644 313.248L341.654 302.091L335.879 312.094ZM339.922 301.091L334.147 311.094C331.713 309.447 329.784 307.031 328.765 304.08L339.922 301.091ZM339.405 299.159L328.248 302.148C327.654 299.084 328.117 296.027 329.402 293.384L339.405 299.159ZM339.347 285.752C342.412 285.158 345.468 285.621 348.112 286.906L342.337 296.909L339.347 285.752ZM349.844 287.906C352.278 289.553 354.207 291.969 355.226 294.92L344.069 297.909L349.844 287.906ZM355.743 296.852C356.337 299.916 355.874 302.973 354.589 305.616L344.586 299.841L355.743 296.852ZM353.589 307.348C351.943 309.783 349.527 311.712 346.576 312.73L343.586 301.573L353.589 307.348ZM330.402 291.652C332.049 289.217 334.464 287.288 337.415 286.27L340.405 297.427L330.402 291.652ZM282.596 317.473C282.265 317.491 281.931 317.5 281.596 317.5C281.26 317.5 280.927 317.491 280.596 317.473C276.378 317.242 272.547 315.559 269.594 312.915C269.346 312.693 269.104 312.464 268.868 312.228C268.632 311.992 268.403 311.75 268.18 311.501C265.537 308.548 263.854 304.717 263.623 300.5C263.605 300.169 263.596 299.836 263.596 299.5C263.596 299.164 263.605 298.831 263.623 298.5C263.854 294.282 265.537 290.452 268.18 287.499C268.402 287.251 268.63 287.01 268.865 286.775L268.867 286.773L268.868 286.772L268.871 286.769C269.106 286.534 269.347 286.306 269.594 286.084C272.547 283.441 276.378 281.758 280.596 281.527C280.927 281.509 281.26 281.5 281.596 281.5C281.931 281.5 282.265 281.509 282.596 281.527C286.813 281.758 290.644 283.441 293.597 286.084C293.845 286.307 294.088 286.536 294.324 286.772C294.559 287.008 294.789 287.25 295.011 287.499C297.655 290.452 299.337 294.282 299.568 298.5C299.586 298.831 299.596 299.164 299.596 299.5C299.596 299.836 299.586 300.169 299.568 300.5C299.337 304.717 297.655 308.548 295.011 311.501C294.79 311.749 294.561 311.99 294.327 312.225L294.324 312.228L294.323 312.229L294.321 312.231C294.086 312.466 293.844 312.694 293.597 312.915C290.644 315.559 286.813 317.242 282.596 317.473ZM272.428 310.081C274.649 312.007 277.482 313.245 280.596 313.465V301.914L272.428 310.081ZM279.181 300.5L271.014 308.667C269.089 306.447 267.851 303.614 267.631 300.5H279.181ZM279.181 298.5H267.631C267.851 295.386 269.089 292.553 271.014 290.333L279.181 298.5ZM282.596 285.535C285.71 285.755 288.542 286.993 290.763 288.918L282.596 297.086V285.535ZM292.177 290.333C294.103 292.553 295.341 295.386 295.56 298.5H284.01L292.177 290.333ZM295.56 300.5C295.341 303.614 294.103 306.447 292.177 308.667L284.01 300.5H295.56ZM290.763 310.081C288.542 312.007 285.71 313.245 282.596 313.465V301.914L290.763 310.081ZM272.428 288.918C274.649 286.993 277.482 285.755 280.596 285.535V297.086L272.428 288.918Z" fill="#392A13"/>
</g>
<g opacity="0.2">
<path d="M275.996 299.3C275.996 302.282 278.413 304.7 281.396 304.7C284.378 304.7 286.796 302.282 286.796 299.3C286.796 296.318 284.378 293.9 281.396 293.9C278.413 293.9 275.996 296.318 275.996 299.3Z" fill="#392A13"/>
<path d="M336.535 300.756C337.306 303.637 340.267 305.346 343.148 304.575C346.029 303.803 347.738 300.842 346.967 297.961C346.195 295.08 343.234 293.371 340.353 294.143C337.472 294.914 335.763 297.875 336.535 300.756Z" fill="#392A13"/>
<path d="M303.395 299.3C303.395 302.835 306.261 305.7 309.795 305.7C313.33 305.7 316.195 302.835 316.195 299.3C316.195 295.765 313.33 292.9 309.795 292.9C306.261 292.9 303.395 295.765 303.395 299.3Z" fill="#392A13"/>
<path fill-rule="evenodd" clip-rule="evenodd" d="M339.596 257.5C339.596 256.395 338.7 255.5 337.596 255.5H318.196C317.091 255.5 316.196 256.395 316.196 257.5C316.196 258.605 317.091 259.5 318.196 259.5H327.606L323.115 268.786H295.235L299.453 258.243C299.699 257.627 299.624 256.928 299.252 256.379C298.88 255.829 298.259 255.5 297.596 255.5H281.696C277.664 255.5 274.396 258.768 274.396 262.8C274.396 266.832 277.664 270.1 281.696 270.1H283.196C284.3 270.1 285.196 269.205 285.196 268.1C285.196 266.995 284.3 266.1 283.196 266.1H281.696C279.873 266.1 278.396 264.623 278.396 262.8C278.396 260.977 279.873 259.5 281.696 259.5H294.642L278.539 299.757C278.128 300.783 278.627 301.947 279.653 302.357C280.678 302.767 281.842 302.268 282.253 301.243L292.635 275.286L308.278 301.524C308.638 302.129 309.291 302.5 309.996 302.5H342.196C342.916 302.5 343.581 302.112 343.936 301.485C344.291 300.858 344.281 300.089 343.911 299.471L326.64 270.684L332.05 259.5H337.596C338.7 259.5 339.596 258.605 339.596 257.5ZM324.558 274.988L338.663 298.5H313.185L324.558 274.988ZM309.812 296.286L295.802 272.786H321.18L309.812 296.286Z" fill="#392A13"/>
</g>
<circle cx="75" cy="75" r="73" transform="matrix(-1 0 0 1 150 211.5)" fill="white"/>
<circle cx="75" cy="75" r="73" transform="matrix(-1 0 0 1 150 211.5)" stroke="url(#paint4_linear_40_2212)" stroke-width="4"/>
<circle cx="75" cy="75" r="73" transform="matrix(-1 0 0 1 150 211.5)" stroke="url(#paint5_radial_40_2212)" stroke-opacity="0.6" stroke-width="4"/>
<g filter="url(#filter2_di_40_2212)">
<path fill-rule="evenodd" clip-rule="evenodd" d="M99.5547 253.5C100.659 253.5 101.555 254.395 101.555 255.5C101.555 256.605 100.659 257.5 99.5547 257.5H94.0089L88.5992 268.684L100.524 288.561L99.3743 284.27C99.6873 284.162 100.006 284.064 100.331 283.977C100.656 283.89 100.981 283.815 101.306 283.752L103.506 291.961C104.292 291.931 105.061 292.074 105.765 292.365L110.071 284.906C110.671 285.198 111.25 285.532 111.803 285.906L107.444 293.457C107.952 293.942 108.37 294.532 108.662 295.203L117.185 292.92C117.293 293.233 117.391 293.552 117.478 293.876C117.565 294.201 117.639 294.526 117.702 294.852L109.107 297.155C109.134 297.842 109.027 298.517 108.806 299.146L116.548 303.616C116.256 304.216 115.922 304.795 115.548 305.348L107.806 300.878C107.372 301.384 106.841 301.814 106.232 302.135L108.535 310.73C108.222 310.838 107.903 310.936 107.578 311.023C107.253 311.11 106.928 311.185 106.603 311.248L104.319 302.725C103.592 302.808 102.872 302.741 102.198 302.543L97.8384 310.094C97.2382 309.802 96.6592 309.467 96.1064 309.094L100.412 301.635C99.9967 301.315 99.626 300.934 99.3157 300.5H96.622L90.7244 302.08C90.6164 301.767 90.5186 301.448 90.4316 301.123C90.376 300.916 90.3253 300.708 90.2795 300.5H77.2984C76.1918 302.413 74.1235 303.7 71.7545 303.7C68.2199 303.7 65.3545 300.835 65.3545 297.3C65.3545 295.863 65.8279 294.537 66.6271 293.469L54.5945 273.286L46.7542 292.886L52.722 286.918C53.2263 287.356 53.699 287.828 54.1362 288.333L47.9714 294.497C48.3368 295.098 48.5882 295.776 48.6958 296.5H57.5196C57.5429 296.83 57.5548 297.164 57.5548 297.5C57.5548 297.836 57.5429 298.17 57.5196 298.5H48.6209C48.4686 299.171 48.1912 299.795 47.8145 300.346L54.1362 306.667C53.699 307.171 53.2263 307.644 52.722 308.081L46.4003 301.76C45.8498 302.136 45.2261 302.414 44.5548 302.566V311.465C44.2245 311.488 43.891 311.5 43.5548 311.5C43.2185 311.5 42.8851 311.488 42.5548 311.465V302.641C41.8303 302.534 41.1528 302.282 40.5522 301.917L34.3875 308.081C33.8832 307.644 33.4105 307.171 32.9733 306.667L39.0628 300.578C38.6003 299.973 38.2626 299.267 38.0885 298.5H29.5899C29.5666 298.17 29.5548 297.836 29.5548 297.5C29.5548 297.164 29.5666 296.83 29.5899 296.5H38.0135C38.1359 295.676 38.4444 294.913 38.8949 294.254L32.9733 288.333C33.4105 287.828 33.8832 287.356 34.3875 286.918L40.3091 292.84C40.9676 292.39 41.7308 292.081 42.5548 291.959V283.535C42.8851 283.512 43.2185 283.5 43.5548 283.5C43.891 283.5 44.2245 283.512 44.5548 283.535V287.615L56.6006 257.5H43.6547C41.8321 257.5 40.3547 258.977 40.3547 260.8C40.3547 262.623 41.8321 264.1 43.6547 264.1H45.1547C46.2592 264.1 47.1547 264.995 47.1547 266.1C47.1547 267.205 46.2592 268.1 45.1547 268.1H43.6547C39.623 268.1 36.3547 264.832 36.3547 260.8C36.3547 256.768 39.623 253.5 43.6547 253.5H59.5547C60.2183 253.5 60.8387 253.829 61.2108 254.379C61.5829 254.928 61.6581 255.627 61.4116 256.243L57.1944 266.786H85.0738L89.5655 257.5H80.1547C79.0501 257.5 78.1547 256.605 78.1547 255.5C78.1547 254.395 79.0501 253.5 80.1547 253.5H99.5547ZM98.6136 295.571C98.5078 295.872 98.4283 296.182 98.377 296.5H78.105C77.9526 295.278 77.4554 294.162 76.7138 293.254L86.517 272.988L98.7147 293.32L92.361 289.652C91.9871 290.205 91.6529 290.783 91.361 291.384L98.6136 295.571ZM69.9127 291.169L57.7611 270.786H83.1389L73.3164 291.092C72.8165 290.967 72.2933 290.9 71.7545 290.9C71.1143 290.9 70.496 290.994 69.9127 291.169Z" fill="#392A13"/>
</g>
<circle opacity="0.2" cx="18" cy="18" r="16" transform="matrix(-1 0 0 1 61.5549 279.5)" stroke="#392A13" stroke-width="4"/>
<circle opacity="0.2" cx="18" cy="18" r="16" transform="matrix(-0.965926 0.258819 0.258819 0.965926 116.683 275.455)" stroke="#392A13" stroke-width="4"/>
<circle cx="75" cy="75" r="73" transform="matrix(-1 0 0 1 622 429.5)" fill="white"/>
<circle cx="75" cy="75" r="73" transform="matrix(-1 0 0 1 622 429.5)" stroke="#ACCFEF" stroke-width="4"/>
<circle cx="75" cy="75" r="73" transform="matrix(-1 0 0 1 622 429.5)" stroke="url(#paint6_radial_40_2212)" stroke-opacity="0.6" stroke-width="4"/>
<g opacity="0.1" filter="url(#filter3_di_40_2212)">
<path fill-rule="evenodd" clip-rule="evenodd" d="M573.596 473.5C574.7 473.5 575.596 474.395 575.596 475.5C575.596 476.605 574.7 477.5 573.596 477.5H568.05L562.64 488.684L570.194 501.275C570.894 500.939 571.623 500.646 572.378 500.398C572.693 500.295 573.013 500.2 573.337 500.113C573.661 500.026 573.985 499.949 574.31 499.881C578.443 499.012 582.579 499.646 586.116 501.435C586.413 501.586 586.707 501.745 586.996 501.911C587.284 502.078 587.569 502.253 587.848 502.435C591.165 504.604 593.782 507.868 595.097 511.882C595.2 512.197 595.295 512.517 595.382 512.841C595.469 513.165 595.546 513.49 595.615 513.814C596.483 517.948 595.849 522.084 594.06 525.62C593.91 525.916 593.752 526.209 593.586 526.496L593.584 526.5L593.582 526.504C593.416 526.791 593.242 527.074 593.06 527.352C590.892 530.67 587.627 533.287 583.613 534.601C583.298 534.705 582.978 534.8 582.654 534.887C582.33 534.973 582.006 535.051 581.681 535.119C577.548 535.988 573.412 535.354 569.875 533.564C569.578 533.414 569.284 533.255 568.996 533.088C568.707 532.922 568.423 532.747 568.143 532.564C564.826 530.396 562.209 527.132 560.894 523.118C560.791 522.802 560.696 522.483 560.609 522.159C560.522 521.835 560.445 521.51 560.376 521.186C560.328 520.957 560.285 520.729 560.246 520.5H551.339C550.233 522.413 548.164 523.7 545.795 523.7C542.261 523.7 539.395 520.835 539.395 517.3C539.395 515.863 539.869 514.537 540.668 513.469L528.635 493.286L525.433 501.291C526.952 502.027 528.353 502.971 529.597 504.084C529.846 504.307 530.088 504.536 530.324 504.772C530.559 505.008 530.789 505.25 531.011 505.499C533.655 508.452 535.337 512.282 535.568 516.5C535.587 516.831 535.596 517.164 535.596 517.5C535.596 517.835 535.587 518.169 535.568 518.5C535.337 522.717 533.655 526.548 531.011 529.501C530.79 529.749 530.561 529.99 530.327 530.225L530.324 530.228L530.321 530.231C530.086 530.466 529.844 530.694 529.597 530.915C526.644 533.559 522.813 535.242 518.596 535.473C518.265 535.491 517.931 535.5 517.596 535.5C517.26 535.5 516.927 535.491 516.596 535.473C512.378 535.242 508.547 533.559 505.594 530.915C505.346 530.693 505.104 530.464 504.868 530.228C504.632 529.992 504.403 529.75 504.18 529.501C501.537 526.548 499.854 522.717 499.623 518.5C499.605 518.169 499.596 517.835 499.596 517.5C499.596 517.164 499.605 516.831 499.623 516.5C499.854 512.282 501.537 508.452 504.18 505.499C504.402 505.251 504.63 505.01 504.865 504.775L504.868 504.772L504.871 504.769C505.106 504.534 505.347 504.306 505.594 504.084C508.547 501.441 512.378 499.758 516.596 499.527C516.927 499.509 517.26 499.5 517.596 499.5C517.931 499.5 518.265 499.509 518.596 499.527C519.643 499.585 520.666 499.731 521.657 499.96L530.641 477.5H517.696C515.873 477.5 514.396 478.977 514.396 480.8C514.396 482.623 515.873 484.1 517.696 484.1H519.196C520.3 484.1 521.196 484.995 521.196 486.1C521.196 487.205 520.3 488.1 519.196 488.1H517.696C513.664 488.1 510.396 484.832 510.396 480.8C510.396 476.768 513.664 473.5 517.696 473.5H533.596C534.259 473.5 534.88 473.829 535.252 474.379C535.624 474.928 535.699 475.627 535.453 476.243L531.235 486.786H559.115L563.606 477.5H554.196C553.091 477.5 552.196 476.605 552.196 475.5C552.196 474.395 553.091 473.5 554.196 473.5H573.596ZM560.018 516.5H552.146C551.993 515.278 551.496 514.162 550.755 513.254L560.558 492.988L566.803 503.397C565.282 504.605 563.979 506.045 562.931 507.648C562.749 507.926 562.575 508.209 562.409 508.496L562.407 508.5L562.405 508.504C562.239 508.791 562.081 509.083 561.931 509.38C560.823 511.571 560.158 513.992 560.018 516.5ZM571.228 502.998C571.766 502.748 572.322 502.526 572.896 502.334L574.565 508.561L571.228 502.998ZM572.756 513.32L567.842 505.129C566.607 506.144 565.539 507.333 564.666 508.649L572.756 513.32ZM572.654 515.571L563.666 510.381C562.726 512.271 562.156 514.349 562.022 516.5H572.418C572.469 516.182 572.549 515.871 572.654 515.571ZM577.547 511.961L574.828 501.816C578.428 501.085 582.022 501.633 585.114 503.17L579.806 512.365C579.102 512.074 578.333 511.931 577.547 511.961ZM581.485 513.457L586.846 504.17C589.724 506.079 591.995 508.918 593.162 512.401L582.703 515.203C582.411 514.532 581.993 513.942 581.485 513.457ZM583.148 517.155L593.68 514.333C594.41 517.932 593.863 521.526 592.325 524.618L582.847 519.146C583.068 518.517 583.174 517.842 583.148 517.155ZM581.847 520.878L591.325 526.35C589.416 529.228 586.577 531.499 583.095 532.666L580.273 522.135C580.882 521.814 581.412 521.384 581.847 520.878ZM578.36 522.725L581.163 533.184C577.563 533.915 573.969 533.367 570.877 531.829L576.238 522.543C576.913 522.741 577.633 522.808 578.36 522.725ZM574.453 521.635L569.145 530.829C566.267 528.921 563.996 526.082 562.829 522.599L570.663 520.5H573.357C573.667 520.934 574.038 521.315 574.453 521.635ZM562.935 520.5H562.279C562.289 520.556 562.3 520.611 562.312 520.667L562.935 520.5ZM528.18 505.501C527.13 504.573 525.956 503.782 524.688 503.153L520.795 512.886L528.18 505.501ZM529.595 506.915L522.012 514.497C522.378 515.098 522.629 515.776 522.737 516.5H533.565C533.339 512.834 531.88 509.504 529.595 506.915ZM533.565 518.5H522.662C522.51 519.171 522.232 519.795 521.855 520.346L529.595 528.085C531.88 525.496 533.339 522.166 533.565 518.5ZM528.18 529.499L520.441 521.76C519.891 522.136 519.267 522.414 518.596 522.566V533.469C522.262 533.243 525.592 531.784 528.18 529.499ZM516.596 533.469V522.641C515.871 522.534 515.194 522.282 514.593 521.917L507.011 529.499C509.6 531.784 512.93 533.243 516.596 533.469ZM505.597 528.085L513.104 520.578C512.641 519.973 512.304 519.267 512.129 518.5H501.626C501.852 522.166 503.311 525.496 505.597 528.085ZM501.626 516.5H512.055C512.177 515.676 512.485 514.913 512.936 514.254L505.597 506.915C503.311 509.504 501.852 512.834 501.626 516.5ZM507.011 505.501L514.35 512.84C515.009 512.39 515.772 512.081 516.596 511.959V501.531C512.93 501.756 509.6 503.215 507.011 505.501ZM520.905 501.842L518.596 507.614V501.531C519.382 501.579 520.153 501.684 520.905 501.842ZM543.954 511.169L531.802 490.786H557.18L547.357 511.092C546.857 510.967 546.334 510.9 545.795 510.9C545.155 510.9 544.537 510.994 543.954 511.169Z" fill="#392A13"/>
</g>
<path fill-rule="evenodd" clip-rule="evenodd" d="M581.619 531.023C574.151 533.024 566.474 528.592 564.473 521.123C562.472 513.655 566.904 505.978 574.372 503.977C581.841 501.976 589.517 506.408 591.519 513.876C593.52 521.345 589.088 529.022 581.619 531.023ZM582.654 534.887C573.052 537.46 563.182 531.761 560.609 522.159C558.036 512.556 563.735 502.686 573.337 500.113C582.939 497.54 592.809 503.239 595.382 512.841C597.955 522.444 592.257 532.314 582.654 534.887Z" fill="#392A13"/>
<circle cx="18" cy="18" r="16" transform="matrix(-1 0 0 1 535.596 499.5)" stroke="#392A13" stroke-width="4"/>
<circle cx="75" cy="75" r="73" transform="matrix(-1 0 0 1 386 429.5)" fill="white"/>
<circle cx="75" cy="75" r="73" transform="matrix(-1 0 0 1 386 429.5)" stroke="#CEA637" stroke-width="4"/>
<circle cx="75" cy="75" r="73" transform="matrix(-1 0 0 1 386 429.5)" stroke="url(#paint7_radial_40_2212)" stroke-opacity="0.6" stroke-width="4"/>
<circle cx="75" cy="75" r="73" transform="matrix(-1 0 0 1 150 429.5)" fill="white"/>
<circle cx="75" cy="75" r="73" transform="matrix(-1 0 0 1 150 429.5)" stroke="#B5BE30" stroke-width="4"/>
<circle cx="75" cy="75" r="73" transform="matrix(-1 0 0 1 150 429.5)" stroke="url(#paint8_radial_40_2212)" stroke-opacity="0.4" stroke-width="4"/>
<g filter="url(#filter4_di_40_2212)">
<path fill-rule="evenodd" clip-rule="evenodd" d="M341.444 473.5C342.548 473.5 343.444 474.395 343.444 475.5C343.444 476.605 342.548 477.5 341.444 477.5H335.898L330.488 488.684L344.517 512.068C347.295 511.497 350.071 513.186 350.815 515.961C351.587 518.842 349.877 521.803 346.996 522.575C344.76 523.174 342.476 522.278 341.205 520.5H319.187C318.081 522.413 316.013 523.7 313.644 523.7C310.109 523.7 307.244 520.835 307.244 517.3C307.244 515.863 307.717 514.537 308.516 513.469L296.484 493.286L288.577 513.051C289.836 514.04 290.644 515.576 290.644 517.3C290.644 520.282 288.226 522.7 285.244 522.7C282.261 522.7 279.844 520.282 279.844 517.3C279.844 514.495 281.983 512.189 284.72 511.925L298.49 477.5H285.544C283.721 477.5 282.244 478.977 282.244 480.8C282.244 482.623 283.721 484.1 285.544 484.1H287.044C288.148 484.1 289.044 484.995 289.044 486.1C289.044 487.205 288.148 488.1 287.044 488.1H285.544C281.512 488.1 278.244 484.832 278.244 480.8C278.244 476.768 281.512 473.5 285.544 473.5H301.444C302.107 473.5 302.728 473.829 303.1 474.379C303.472 474.928 303.547 475.627 303.301 476.243L299.084 486.786H326.963L331.455 477.5H322.044C320.939 477.5 320.044 476.605 320.044 475.5C320.044 474.395 320.939 473.5 322.044 473.5H341.444ZM341.172 514.266C340.709 514.929 340.397 515.692 340.266 516.5H319.994C319.842 515.278 319.344 514.162 318.603 513.254L328.406 492.988L341.172 514.266ZM311.802 511.169L299.65 490.786H325.028L315.205 511.092C314.706 510.967 314.182 510.9 313.644 510.9C313.003 510.9 312.385 510.994 311.802 511.169Z" fill="#392A13"/>
</g>
<g opacity="0.2">
<circle cx="18" cy="18" r="16" transform="matrix(-0.965926 0.258819 0.258819 0.965926 358.572 495.455)" stroke="#392A13" stroke-width="4"/>
<path fill-rule="evenodd" clip-rule="evenodd" d="M351.461 534.601C351.146 534.705 350.826 534.8 350.502 534.887C350.178 534.974 349.854 535.051 349.529 535.119C345.396 535.988 341.26 535.354 337.723 533.565C337.426 533.414 337.132 533.255 336.844 533.088C336.555 532.922 336.271 532.747 335.991 532.565C332.674 530.396 330.057 527.132 328.742 523.118C328.639 522.803 328.544 522.483 328.457 522.159C328.37 521.835 328.293 521.51 328.225 521.186C327.356 517.052 327.99 512.916 329.779 509.38C329.929 509.083 330.087 508.791 330.253 508.504C330.254 508.502 330.254 508.501 330.255 508.5C330.256 508.499 330.257 508.498 330.257 508.496C330.423 508.209 330.597 507.926 330.779 507.648C332.947 504.33 336.212 501.713 340.226 500.399C340.541 500.295 340.861 500.2 341.185 500.113C341.509 500.026 341.833 499.949 342.158 499.881C346.291 499.012 350.427 499.646 353.964 501.435C354.261 501.586 354.555 501.745 354.844 501.912C355.132 502.078 355.417 502.253 355.696 502.435C359.013 504.604 361.63 507.868 362.945 511.882C363.048 512.197 363.143 512.517 363.23 512.841C363.317 513.165 363.395 513.49 363.463 513.814C364.331 517.948 363.697 522.084 361.908 525.62C361.758 525.917 361.6 526.209 361.434 526.496C361.433 526.498 361.433 526.499 361.432 526.5C361.431 526.501 361.431 526.502 361.43 526.504C361.264 526.791 361.09 527.074 360.908 527.352C358.74 530.67 355.475 533.287 351.461 534.601ZM349.011 533.184C345.411 533.915 341.817 533.367 338.725 531.83L345.503 520.091L349.011 533.184ZM343.77 519.091L336.993 530.83C334.115 528.921 331.844 526.082 330.677 522.599L343.77 519.091ZM330.16 520.667C329.429 517.068 329.976 513.473 331.514 510.382L343.253 517.159L330.16 520.667ZM344.253 515.427L332.514 508.649C334.423 505.772 337.262 503.501 340.745 502.334L344.253 515.427ZM342.676 501.816C346.276 501.085 349.87 501.633 352.962 503.17L346.185 514.909L342.676 501.816ZM347.917 515.909L354.694 504.17C357.572 506.079 359.843 508.918 361.01 512.401L347.917 515.909ZM361.528 514.333C362.258 517.932 361.711 521.527 360.173 524.618L348.434 517.841L361.528 514.333ZM347.434 519.573L350.943 532.666C354.425 531.499 357.264 529.228 359.173 526.351L347.434 519.573Z" fill="#392A13"/>
</g>
<path opacity="0.2" fill-rule="evenodd" clip-rule="evenodd" d="M285.444 535.5C285.779 535.5 286.113 535.491 286.444 535.473C290.661 535.242 294.492 533.559 297.445 530.915C297.692 530.694 297.934 530.466 298.169 530.231C298.169 530.23 298.17 530.23 298.171 530.229L298.172 530.228L298.175 530.225C298.409 529.99 298.638 529.749 298.859 529.501C301.503 526.548 303.185 522.718 303.416 518.5C303.434 518.169 303.444 517.836 303.444 517.5C303.444 517.164 303.434 516.831 303.416 516.5C303.185 512.282 301.503 508.452 298.859 505.499C298.637 505.25 298.407 505.008 298.172 504.772C297.936 504.536 297.693 504.307 297.445 504.085C294.492 501.441 290.661 499.758 286.444 499.527C286.113 499.509 285.779 499.5 285.444 499.5C285.108 499.5 284.775 499.509 284.444 499.527C280.226 499.758 276.395 501.441 273.442 504.085C273.195 504.306 272.954 504.534 272.719 504.769L272.716 504.772L272.715 504.773C272.714 504.774 272.713 504.774 272.713 504.775C272.478 505.01 272.25 505.251 272.028 505.499C269.385 508.452 267.702 512.282 267.471 516.5C267.453 516.831 267.444 517.164 267.444 517.5C267.444 517.836 267.453 518.169 267.471 518.5C267.702 522.718 269.385 526.548 272.028 529.501C272.251 529.75 272.48 529.992 272.716 530.228C272.951 530.464 273.194 530.693 273.442 530.915C276.395 533.559 280.226 535.242 284.444 535.473C284.775 535.491 285.108 535.5 285.444 535.5ZM284.444 531.465C281.33 531.245 278.497 530.007 276.276 528.081L284.444 519.914V531.465ZM274.862 526.667L283.029 518.5H271.479C271.699 521.614 272.937 524.447 274.862 526.667ZM271.479 516.5H283.029L274.862 508.333C272.937 510.553 271.699 513.386 271.479 516.5ZM294.611 506.919C292.39 504.993 289.558 503.755 286.444 503.535V515.086L294.611 506.919ZM299.408 516.5C299.189 513.386 297.951 510.553 296.025 508.333L287.858 516.5H299.408ZM296.025 526.667C297.951 524.447 299.189 521.614 299.408 518.5H287.858L296.025 526.667ZM286.444 531.465C289.558 531.245 292.39 530.007 294.611 528.081L286.444 519.914V531.465ZM284.444 503.535C281.33 503.755 278.497 504.993 276.276 506.919L284.444 515.086V503.535Z" fill="#392A13"/>
<circle cx="75" cy="75" r="73" transform="matrix(-1 0 0 1 386 0.5)" fill="white"/>
<circle cx="75" cy="75" r="73" transform="matrix(-1 0 0 1 386 0.5)" stroke="url(#paint9_linear_40_2212)" stroke-width="4"/>
<circle cx="75" cy="75" r="73" transform="matrix(-1 0 0 1 386 0.5)" stroke="url(#paint10_radial_40_2212)" stroke-opacity="0.6" stroke-width="4"/>
<g filter="url(#filter5_d_40_2212)">
<circle cx="75" cy="75" r="73" transform="matrix(-1 0 0 1 386 640.5)" stroke="#CFCFCF" stroke-width="4" shape-rendering="crispEdges"/>
<circle cx="75" cy="75" r="73" transform="matrix(-1 0 0 1 386 640.5)" stroke="url(#paint11_radial_40_2212)" stroke-opacity="0.6" stroke-width="4" shape-rendering="crispEdges"/>
</g>
<g filter="url(#filter6_di_40_2212)">
<path fill-rule="evenodd" clip-rule="evenodd" d="M339.596 46.5C339.596 45.3954 338.7 44.5 337.596 44.5H318.196C317.091 44.5 316.196 45.3954 316.196 46.5C316.196 47.6046 317.091 48.5 318.196 48.5H327.606L323.115 57.7857H295.235L299.453 47.2428C299.699 46.6266 299.624 45.9283 299.252 45.3787C298.88 44.8292 298.259 44.5 297.596 44.5H281.696C277.664 44.5 274.396 47.7683 274.396 51.8C274.396 55.8317 277.664 59.1 281.696 59.1H283.196C284.3 59.1 285.196 58.2046 285.196 57.1C285.196 55.9954 284.3 55.1 283.196 55.1H281.696C279.873 55.1 278.396 53.6225 278.396 51.8C278.396 49.9775 279.873 48.5 281.696 48.5H294.641L285.657 70.9601C284.666 70.7314 283.643 70.5846 282.596 70.5273C282.265 70.5091 281.931 70.5 281.596 70.5C281.26 70.5 280.927 70.5091 280.596 70.5273C276.378 70.7582 272.547 72.441 269.594 75.0845C269.347 75.306 269.106 75.5343 268.871 75.7691L268.868 75.772L268.867 75.7731L268.865 75.775C268.63 76.0099 268.402 76.2512 268.18 76.4987C265.537 79.4516 263.854 83.2824 263.623 87.5C263.605 87.831 263.596 88.1644 263.596 88.5C263.596 88.8355 263.605 89.1689 263.623 89.5C263.854 93.7175 265.537 97.5483 268.18 100.501C268.403 100.75 268.632 100.992 268.868 101.228C269.104 101.464 269.346 101.693 269.594 101.915C272.547 104.559 276.378 106.242 280.596 106.473C280.927 106.491 281.26 106.5 281.596 106.5C281.931 106.5 282.265 106.491 282.596 106.473C286.813 106.242 290.644 104.559 293.597 101.915C293.844 101.694 294.086 101.466 294.321 101.231L294.323 101.229L294.324 101.228L294.327 101.225C294.561 100.99 294.79 100.749 295.011 100.501C297.655 97.5483 299.337 93.7175 299.568 89.5C299.586 89.1689 299.596 88.8355 299.596 88.5C299.596 88.1644 299.586 87.831 299.568 87.5C299.337 83.2824 297.655 79.4516 295.011 76.4987C294.789 76.2501 294.559 76.0078 294.324 75.772C294.088 75.5362 293.845 75.3069 293.597 75.0845C292.353 73.9706 290.952 73.0272 289.433 72.2912L292.635 64.2855L304.668 84.4693C303.869 85.5373 303.395 86.8634 303.395 88.3C303.395 91.8346 306.261 94.7 309.795 94.7C312.164 94.7 314.233 93.413 315.339 91.5H324.246C324.285 91.7285 324.328 91.9571 324.376 92.1857C324.445 92.5101 324.522 92.8346 324.609 93.1587C324.696 93.4828 324.791 93.8025 324.894 94.1175C326.209 98.1316 328.826 101.396 332.143 103.564C332.423 103.747 332.707 103.922 332.996 104.088C333.284 104.255 333.578 104.414 333.875 104.564C337.412 106.354 341.548 106.988 345.681 106.119C346.006 106.051 346.33 105.973 346.654 105.887C346.978 105.8 347.298 105.705 347.613 105.601C351.627 104.287 354.892 101.67 357.06 98.3522C357.242 98.0741 357.416 97.7911 357.582 97.5036L357.583 97.5012L357.584 97.5L357.586 97.4963C357.752 97.2087 357.91 96.9165 358.06 96.6201C359.849 93.0836 360.483 88.9478 359.615 84.8142C359.546 84.4898 359.469 84.1653 359.382 83.8412C359.295 83.5171 359.2 83.1974 359.097 82.8824C357.782 78.8683 355.165 75.6035 351.848 73.4354C351.569 73.2529 351.284 73.0782 350.996 72.9115C350.707 72.7448 350.413 72.586 350.116 72.4354C346.579 70.6463 342.443 70.0123 338.31 70.8808C337.985 70.949 337.661 71.0264 337.337 71.1133C337.013 71.2001 336.693 71.2953 336.378 71.3985C335.623 71.6458 334.894 71.9393 334.194 72.2749L326.64 59.6836L332.05 48.5H337.596C338.7 48.5 339.596 47.6046 339.596 46.5ZM336.264 75.7248C336.638 75.5576 337.022 75.4056 337.415 75.2698L338.565 79.5608L336.264 75.7248ZM336.756 84.32L332.884 77.8665C331.931 78.6842 331.098 79.6228 330.402 80.6517L336.756 84.32ZM328.027 87.5H336.418C336.469 87.1823 336.549 86.8715 336.654 86.571L329.402 82.3837C328.631 83.9695 328.156 85.7041 328.027 87.5ZM324.018 87.5C324.158 84.9919 324.823 82.5708 325.931 80.3798C326.081 80.0834 326.239 79.7912 326.405 79.5036L326.406 79.5012L326.407 79.5L326.409 79.4963C326.575 79.2088 326.749 78.9258 326.931 78.6477C327.979 77.0447 329.282 75.6053 330.803 74.3973L324.558 63.9882L314.755 84.2543C315.496 85.1622 315.993 86.2776 316.146 87.5H324.018ZM337.357 91.5C337.667 91.934 338.038 92.3154 338.453 92.6354L334.147 100.094C331.713 98.447 329.784 96.0312 328.765 93.0802L334.663 91.5H337.357ZM287.942 76.0179C288.961 76.5368 289.907 77.1766 290.763 77.9185L284.795 83.8863L287.942 76.0179ZM282.596 78.6146V74.5351C283.122 74.5723 283.64 74.6385 284.149 74.7322L282.596 78.6146ZM295.802 61.7857L307.954 82.169C308.537 81.994 309.155 81.9 309.795 81.9C310.334 81.9 310.857 81.9666 311.357 82.092L321.18 61.7857H295.802ZM335.879 101.094C338.523 102.379 341.579 102.841 344.644 102.248L342.36 93.7248C341.633 93.8084 340.913 93.7408 340.238 93.5434L335.879 101.094ZM348.112 75.9064C345.468 74.6212 342.412 74.1585 339.347 74.7521L341.547 82.9612C342.333 82.9308 343.102 83.0744 343.806 83.3646L348.112 75.9064ZM355.226 83.9197C354.207 80.9687 352.278 78.5529 349.844 76.9064L345.485 84.4566C345.993 84.9422 346.411 85.5315 346.703 86.2034L355.226 83.9197ZM354.589 94.6162C355.874 91.9729 356.337 88.9162 355.743 85.8515L347.148 88.1547C347.174 88.8425 347.068 89.5168 346.847 90.1461L354.589 94.6162ZM346.576 101.73C349.527 100.712 351.943 98.7828 353.589 96.3482L345.847 91.8781C345.412 92.3844 344.882 92.8138 344.273 93.1347L346.576 101.73ZM272.428 99.0814C274.649 101.007 277.482 102.245 280.596 102.465V93.6411C279.871 93.5336 279.194 93.2821 278.593 92.9167L272.428 99.0814ZM271.014 97.6672L277.104 91.5776C276.641 90.9729 276.304 90.2675 276.129 89.5H267.631C267.851 92.6139 269.089 95.4466 271.014 97.6672ZM267.631 87.5H276.054C276.177 86.676 276.485 85.9127 276.936 85.2543L271.014 79.3327C269.089 81.5533 267.851 84.386 267.631 87.5ZM295.56 87.5C295.341 84.386 294.103 81.5533 292.177 79.3327L286.012 85.4975C286.378 86.098 286.629 86.7755 286.737 87.5H295.56ZM292.177 97.6672C294.103 95.4466 295.341 92.6139 295.56 89.5H286.662C286.509 90.1712 286.232 90.795 285.855 91.3455L292.177 97.6672ZM282.596 102.465C285.71 102.245 288.542 101.007 290.763 99.0814L284.441 92.7598C283.891 93.1364 283.267 93.4138 282.596 93.5662V102.465ZM280.596 74.5351C277.482 74.7549 274.649 75.993 272.428 77.9185L278.35 83.8401C279.008 83.3897 279.772 83.0812 280.596 82.9588V74.5351Z" fill="#392A13"/>
</g>
<defs>
<filter id="filter0_di_40_2212" x="497.596" y="254.5" width="100.404" height="66.0044" filterUnits="userSpaceOnUse" color-interpolation-filters="sRGB">
<feFlood flood-opacity="0" result="BackgroundImageFix"/>
<feColorMatrix in="SourceAlpha" type="matrix" values="0 0 0 0 0 0 0 0 0 0 0 0 0 0 0 0 0 0 127 0" result="hardAlpha"/>
<feOffset dy="1"/>
<feGaussianBlur stdDeviation="1"/>
<feComposite in2="hardAlpha" operator="out"/>
<feColorMatrix type="matrix" values="0 0 0 0 1 0 0 0 0 1 0 0 0 0 1 0 0 0 0.72 0"/>
<feBlend mode="normal" in2="BackgroundImageFix" result="effect1_dropShadow_40_2212"/>
<feBlend mode="normal" in="SourceGraphic" in2="effect1_dropShadow_40_2212" result="shape"/>
<feColorMatrix in="SourceAlpha" type="matrix" values="0 0 0 0 0 0 0 0 0 0 0 0 0 0 0 0 0 0 127 0" result="hardAlpha"/>
<feOffset dy="-2"/>
<feGaussianBlur stdDeviation="0.5"/>
<feComposite in2="hardAlpha" operator="arithmetic" k2="-1" k3="1"/>
<feColorMatrix type="matrix" values="0 0 0 0 0 0 0 0 0 0 0 0 0 0 0 0 0 0 0.45 0"/>
<feBlend mode="normal" in2="shape" result="effect2_innerShadow_40_2212"/>
</filter>
<filter id="filter1_di_40_2212" x="261.596" y="280.495" width="100.404" height="40.0089" filterUnits="userSpaceOnUse" color-interpolation-filters="sRGB">
<feFlood flood-opacity="0" result="BackgroundImageFix"/>
<feColorMatrix in="SourceAlpha" type="matrix" values="0 0 0 0 0 0 0 0 0 0 0 0 0 0 0 0 0 0 127 0" result="hardAlpha"/>
<feOffset dy="1"/>
<feGaussianBlur stdDeviation="1"/>
<feComposite in2="hardAlpha" operator="out"/>
<feColorMatrix type="matrix" values="0 0 0 0 1 0 0 0 0 1 0 0 0 0 1 0 0 0 0.72 0"/>
<feBlend mode="normal" in2="BackgroundImageFix" result="effect1_dropShadow_40_2212"/>
<feBlend mode="normal" in="SourceGraphic" in2="effect1_dropShadow_40_2212" result="shape"/>
<feColorMatrix in="SourceAlpha" type="matrix" values="0 0 0 0 0 0 0 0 0 0 0 0 0 0 0 0 0 0 127 0" result="hardAlpha"/>
<feOffset dy="-2"/>
<feGaussianBlur stdDeviation="0.5"/>
<feComposite in2="hardAlpha" operator="arithmetic" k2="-1" k3="1"/>
<feColorMatrix type="matrix" values="0 0 0 0 0 0 0 0 0 0 0 0 0 0 0 0 0 0 0.45 0"/>
<feBlend mode="normal" in2="shape" result="effect2_innerShadow_40_2212"/>
</filter>
<filter id="filter2_di_40_2212" x="27.5547" y="252.5" width="92.1477" height="61.9999" filterUnits="userSpaceOnUse" color-interpolation-filters="sRGB">
<feFlood flood-opacity="0" result="BackgroundImageFix"/>
<feColorMatrix in="SourceAlpha" type="matrix" values="0 0 0 0 0 0 0 0 0 0 0 0 0 0 0 0 0 0 127 0" result="hardAlpha"/>
<feOffset dy="1"/>
<feGaussianBlur stdDeviation="1"/>
<feComposite in2="hardAlpha" operator="out"/>
<feColorMatrix type="matrix" values="0 0 0 0 1 0 0 0 0 1 0 0 0 0 1 0 0 0 0.72 0"/>
<feBlend mode="normal" in2="BackgroundImageFix" result="effect1_dropShadow_40_2212"/>
<feBlend mode="normal" in="SourceGraphic" in2="effect1_dropShadow_40_2212" result="shape"/>
<feColorMatrix in="SourceAlpha" type="matrix" values="0 0 0 0 0 0 0 0 0 0 0 0 0 0 0 0 0 0 127 0" result="hardAlpha"/>
<feOffset dy="-2"/>
<feGaussianBlur stdDeviation="0.5"/>
<feComposite in2="hardAlpha" operator="arithmetic" k2="-1" k3="1"/>
<feColorMatrix type="matrix" values="0 0 0 0 0 0 0 0 0 0 0 0 0 0 0 0 0 0 0.45 0"/>
<feBlend mode="normal" in2="shape" result="effect2_innerShadow_40_2212"/>
</filter>
<filter id="filter3_di_40_2212" x="497.596" y="472.5" width="100.404" height="66.0044" filterUnits="userSpaceOnUse" color-interpolation-filters="sRGB">
<feFlood flood-opacity="0" result="BackgroundImageFix"/>
<feColorMatrix in="SourceAlpha" type="matrix" values="0 0 0 0 0 0 0 0 0 0 0 0 0 0 0 0 0 0 127 0" result="hardAlpha"/>
<feOffset dy="1"/>
<feGaussianBlur stdDeviation="1"/>
<feComposite in2="hardAlpha" operator="out"/>
<feColorMatrix type="matrix" values="0 0 0 0 1 0 0 0 0 1 0 0 0 0 1 0 0 0 0.72 0"/>
<feBlend mode="normal" in2="BackgroundImageFix" result="effect1_dropShadow_40_2212"/>
<feBlend mode="normal" in="SourceGraphic" in2="effect1_dropShadow_40_2212" result="shape"/>
<feColorMatrix in="SourceAlpha" type="matrix" values="0 0 0 0 0 0 0 0 0 0 0 0 0 0 0 0 0 0 127 0" result="hardAlpha"/>
<feOffset dy="-2"/>
<feGaussianBlur stdDeviation="0.5"/>
<feComposite in2="hardAlpha" operator="arithmetic" k2="-1" k3="1"/>
<feColorMatrix type="matrix" values="0 0 0 0 0 0 0 0 0 0 0 0 0 0 0 0 0 0 0.45 0"/>
<feBlend mode="normal" in2="shape" result="effect2_innerShadow_40_2212"/>
</filter>
<filter id="filter4_di_40_2212" x="276.244" y="472.5" width="76.7563" height="54.2" filterUnits="userSpaceOnUse" color-interpolation-filters="sRGB">
<feFlood flood-opacity="0" result="BackgroundImageFix"/>
<feColorMatrix in="SourceAlpha" type="matrix" values="0 0 0 0 0 0 0 0 0 0 0 0 0 0 0 0 0 0 127 0" result="hardAlpha"/>
<feOffset dy="1"/>
<feGaussianBlur stdDeviation="1"/>
<feComposite in2="hardAlpha" operator="out"/>
<feColorMatrix type="matrix" values="0 0 0 0 1 0 0 0 0 1 0 0 0 0 1 0 0 0 0.72 0"/>
<feBlend mode="normal" in2="BackgroundImageFix" result="effect1_dropShadow_40_2212"/>
<feBlend mode="normal" in="SourceGraphic" in2="effect1_dropShadow_40_2212" result="shape"/>
<feColorMatrix in="SourceAlpha" type="matrix" values="0 0 0 0 0 0 0 0 0 0 0 0 0 0 0 0 0 0 127 0" result="hardAlpha"/>
<feOffset dy="-2"/>
<feGaussianBlur stdDeviation="0.5"/>
<feComposite in2="hardAlpha" operator="arithmetic" k2="-1" k3="1"/>
<feColorMatrix type="matrix" values="0 0 0 0 0 0 0 0 0 0 0 0 0 0 0 0 0 0 0.45 0"/>
<feBlend mode="normal" in2="shape" result="effect2_innerShadow_40_2212"/>
</filter>
<filter id="filter5_d_40_2212" x="216" y="630.5" width="190" height="190" filterUnits="userSpaceOnUse" color-interpolation-filters="sRGB">
<feFlood flood-opacity="0" result="BackgroundImageFix"/>
<feColorMatrix in="SourceAlpha" type="matrix" values="0 0 0 0 0 0 0 0 0 0 0 0 0 0 0 0 0 0 127 0" result="hardAlpha"/>
<feOffset dy="10"/>
<feGaussianBlur stdDeviation="10"/>
<feComposite in2="hardAlpha" operator="out"/>
<feColorMatrix type="matrix" values="0 0 0 0 0 0 0 0 0 0 0 0 0 0 0 0 0 0 0.1 0"/>
<feBlend mode="normal" in2="BackgroundImageFix" result="effect1_dropShadow_40_2212"/>
<feBlend mode="normal" in="SourceGraphic" in2="effect1_dropShadow_40_2212" result="shape"/>
</filter>
<filter id="filter6_di_40_2212" x="261.596" y="43.5" width="100.404" height="66.0044" filterUnits="userSpaceOnUse" color-interpolation-filters="sRGB">
<feFlood flood-opacity="0" result="BackgroundImageFix"/>
<feColorMatrix in="SourceAlpha" type="matrix" values="0 0 0 0 0 0 0 0 0 0 0 0 0 0 0 0 0 0 127 0" result="hardAlpha"/>
<feOffset dy="1"/>
<feGaussianBlur stdDeviation="1"/>
<feComposite in2="hardAlpha" operator="out"/>
<feColorMatrix type="matrix" values="0 0 0 0 1 0 0 0 0 1 0 0 0 0 1 0 0 0 0.72 0"/>
<feBlend mode="normal" in2="BackgroundImageFix" result="effect1_dropShadow_40_2212"/>
<feBlend mode="normal" in="SourceGraphic" in2="effect1_dropShadow_40_2212" result="shape"/>
<feColorMatrix in="SourceAlpha" type="matrix" values="0 0 0 0 0 0 0 0 0 0 0 0 0 0 0 0 0 0 127 0" result="hardAlpha"/>
<feOffset dy="-2"/>
<feGaussianBlur stdDeviation="0.5"/>
<feComposite in2="hardAlpha" operator="arithmetic" k2="-1" k3="1"/>
<feColorMatrix type="matrix" values="0 0 0 0 0 0 0 0 0 0 0 0 0 0 0 0 0 0 0.45 0"/>
<feBlend mode="normal" in2="shape" result="effect2_innerShadow_40_2212"/>
</filter>
<linearGradient id="paint0_linear_40_2212" x1="75" y1="0" x2="75" y2="150" gradientUnits="userSpaceOnUse">
<stop stop-color="#ACCFEF"/>
<stop offset="1" stop-color="#CEA637"/>
</linearGradient>
<radialGradient id="paint1_radial_40_2212" cx="0" cy="0" r="1" gradientUnits="userSpaceOnUse" gradientTransform="translate(75 34.5) rotate(90) scale(61.5)">
<stop stop-color="white"/>
<stop offset="1" stop-color="white" stop-opacity="0"/>
</radialGradient>
<linearGradient id="paint2_linear_40_2212" x1="75" y1="0" x2="75" y2="150" gradientUnits="userSpaceOnUse">
<stop stop-color="#ACCFEF"/>
<stop offset="1" stop-color="#B5BE30"/>
</linearGradient>
<radialGradient id="paint3_radial_40_2212" cx="0" cy="0" r="1" gradientUnits="userSpaceOnUse" gradientTransform="translate(75 34.5) rotate(90) scale(61.5)">
<stop stop-color="white"/>
<stop offset="1" stop-color="white" stop-opacity="0"/>
</radialGradient>
<linearGradient id="paint4_linear_40_2212" x1="75" y1="51" x2="75" y2="113.25" gradientUnits="userSpaceOnUse">
<stop stop-color="#B5BE30"/>
<stop offset="1" stop-color="#CEA637"/>
</linearGradient>
<radialGradient id="paint5_radial_40_2212" cx="0" cy="0" r="1" gradientUnits="userSpaceOnUse" gradientTransform="translate(75 34.5) rotate(90) scale(61.5)">
<stop stop-color="white"/>
<stop offset="1" stop-color="white" stop-opacity="0"/>
</radialGradient>
<radialGradient id="paint6_radial_40_2212" cx="0" cy="0" r="1" gradientUnits="userSpaceOnUse" gradientTransform="translate(75 34.5) rotate(90) scale(61.5)">
<stop stop-color="white"/>
<stop offset="1" stop-color="white" stop-opacity="0"/>
</radialGradient>
<radialGradient id="paint7_radial_40_2212" cx="0" cy="0" r="1" gradientUnits="userSpaceOnUse" gradientTransform="translate(75 34.5) rotate(90) scale(61.5)">
<stop stop-color="white"/>
<stop offset="1" stop-color="white" stop-opacity="0"/>
</radialGradient>
<radialGradient id="paint8_radial_40_2212" cx="0" cy="0" r="1" gradientUnits="userSpaceOnUse" gradientTransform="translate(75 34.5) rotate(90) scale(61.5)">
<stop stop-color="white"/>
<stop offset="1" stop-color="white" stop-opacity="0"/>
</radialGradient>
<linearGradient id="paint9_linear_40_2212" x1="75" y1="0" x2="75" y2="150" gradientUnits="userSpaceOnUse">
<stop stop-color="#ACCFEF"/>
<stop offset="0.495" stop-color="#CEA637"/>
<stop offset="1" stop-color="#B5BE30"/>
</linearGradient>
<radialGradient id="paint10_radial_40_2212" cx="0" cy="0" r="1" gradientUnits="userSpaceOnUse" gradientTransform="translate(75 34.5) rotate(90) scale(61.5)">
<stop stop-color="white"/>
<stop offset="1" stop-color="white" stop-opacity="0"/>
</radialGradient>
<radialGradient id="paint11_radial_40_2212" cx="0" cy="0" r="1" gradientUnits="userSpaceOnUse" gradientTransform="translate(75 34.5) rotate(90) scale(61.5)">
<stop stop-color="white"/>
<stop offset="1" stop-color="white" stop-opacity="0"/>
</radialGradient>
</defs>
</svg>
