<svg width="819" height="466" viewBox="0 0 819 466" fill="none" xmlns="http://www.w3.org/2000/svg">
<path d="M39.5 50V404H660" stroke="#966A25"/>
<path d="M12.24 24V7.2H15.48V24H12.24ZM1.656 24V7.2H4.896V24H1.656ZM4.44 16.728V14.112H12.792V16.728H4.44ZM18.7888 24V7.2H29.8288V9.816H22.0288V14.208H29.1088V16.728H22.0288V21.384H29.8288V24H18.7888ZM32.781 24V7.2H36.021V24H32.781ZM46.6881 24.288C45.0881 24.288 43.6961 23.936 42.5121 23.232C41.3281 22.512 40.4081 21.512 39.7521 20.232C39.0961 18.936 38.7681 17.432 38.7681 15.72C38.7681 13.992 39.1041 12.472 39.7761 11.16C40.4481 9.832 41.4161 8.792 42.6801 8.04C43.9441 7.288 45.4561 6.912 47.2161 6.912C49.1841 6.912 50.8161 7.384 52.1121 8.328C53.4241 9.272 54.2721 10.584 54.6561 12.264H51.0321C50.7921 11.528 50.3441 10.952 49.6881 10.536C49.0481 10.104 48.2161 9.888 47.1921 9.888C46.1041 9.888 45.1761 10.128 44.4081 10.608C43.6401 11.088 43.0561 11.76 42.6561 12.624C42.2561 13.488 42.0561 14.52 42.0561 15.72C42.0561 16.936 42.2561 17.968 42.6561 18.816C43.0561 19.664 43.6241 20.312 44.3601 20.76C45.1121 21.192 45.9921 21.408 47.0001 21.408C48.4721 21.408 49.5841 21.016 50.3361 20.232C51.1041 19.432 51.5601 18.4 51.7041 17.136H47.5761V14.712H54.9681V24H51.9681L51.7281 21.864C51.3761 22.392 50.9601 22.84 50.4801 23.208C50.0161 23.56 49.4721 23.824 48.8481 24C48.2241 24.192 47.5041 24.288 46.6881 24.288ZM68.5838 24V7.2H71.8238V24H68.5838ZM57.9998 24V7.2H61.2398V24H57.9998ZM60.7838 16.728V14.112H69.1358V16.728H60.7838ZM79.0446 24V9.816H74.1246V7.2H87.1566V9.816H82.2606V24H79.0446Z" fill="#966A25"/>
<path d="M701.024 410.288C699.424 410.288 698.032 409.936 696.848 409.232C695.664 408.512 694.744 407.512 694.088 406.232C693.432 404.936 693.104 403.432 693.104 401.72C693.104 399.992 693.44 398.472 694.112 397.16C694.784 395.832 695.752 394.792 697.016 394.04C698.28 393.288 699.792 392.912 701.552 392.912C703.52 392.912 705.152 393.384 706.448 394.328C707.76 395.272 708.608 396.584 708.992 398.264H705.368C705.128 397.528 704.68 396.952 704.024 396.536C703.384 396.104 702.552 395.888 701.528 395.888C700.44 395.888 699.512 396.128 698.744 396.608C697.976 397.088 697.392 397.76 696.992 398.624C696.592 399.488 696.392 400.52 696.392 401.72C696.392 402.936 696.592 403.968 696.992 404.816C697.392 405.664 697.96 406.312 698.696 406.76C699.448 407.192 700.328 407.408 701.336 407.408C702.808 407.408 703.92 407.016 704.672 406.232C705.44 405.432 705.896 404.4 706.04 403.136H701.912V400.712H709.304V410H706.304L706.064 407.864C705.712 408.392 705.296 408.84 704.816 409.208C704.352 409.56 703.808 409.824 703.184 410C702.56 410.192 701.84 410.288 701.024 410.288ZM712.336 410V393.2H723.376V395.816H715.576V400.208H722.656V402.728H715.576V407.384H723.376V410H712.336ZM726.328 410V393.2H729.568L737.296 404.792V393.2H740.536V410H737.296L729.568 398.432V410H726.328ZM751.564 410.288C749.932 410.288 748.492 409.92 747.244 409.184C745.996 408.448 745.02 407.432 744.316 406.136C743.612 404.824 743.26 403.312 743.26 401.6C743.26 399.888 743.612 398.384 744.316 397.088C745.02 395.776 745.996 394.752 747.244 394.016C748.492 393.28 749.932 392.912 751.564 392.912C753.212 392.912 754.66 393.28 755.908 394.016C757.156 394.752 758.124 395.776 758.812 397.088C759.516 398.384 759.868 399.888 759.868 401.6C759.868 403.312 759.516 404.824 758.812 406.136C758.124 407.432 757.156 408.448 755.908 409.184C754.66 409.92 753.212 410.288 751.564 410.288ZM751.564 407.384C752.588 407.384 753.468 407.152 754.204 406.688C754.956 406.208 755.54 405.536 755.956 404.672C756.372 403.808 756.58 402.784 756.58 401.6C756.58 400.4 756.372 399.376 755.956 398.528C755.54 397.664 754.956 397 754.204 396.536C753.468 396.072 752.588 395.84 751.564 395.84C750.556 395.84 749.676 396.072 748.924 396.536C748.172 397 747.588 397.664 747.172 398.528C746.756 399.376 746.548 400.4 746.548 401.6C746.548 402.784 746.756 403.808 747.172 404.672C747.588 405.536 748.172 406.208 748.924 406.688C749.676 407.152 750.556 407.384 751.564 407.384ZM765.982 410V395.816H761.062V393.2H774.094V395.816H769.198V410H765.982ZM780.734 410V404.096L775.07 393.2H778.742L782.702 401.504H782.054L785.99 393.2H789.638L783.974 404.096V410H780.734ZM791.625 410V393.2H797.913C799.273 393.2 800.401 393.432 801.297 393.896C802.193 394.36 802.857 394.984 803.289 395.768C803.721 396.552 803.937 397.448 803.937 398.456C803.937 399.384 803.729 400.24 803.313 401.024C802.897 401.808 802.241 402.448 801.345 402.944C800.449 403.424 799.305 403.664 797.913 403.664H794.865V410H791.625ZM794.865 401.048H797.721C798.761 401.048 799.505 400.816 799.953 400.352C800.417 399.872 800.649 399.24 800.649 398.456C800.649 397.624 800.417 396.984 799.953 396.536C799.505 396.072 798.761 395.84 797.721 395.84H794.865V401.048ZM806.367 410V393.2H817.407V395.816H809.607V400.208H816.687V402.728H809.607V407.384H817.407V410H806.367Z" fill="#966A25"/>
<path d="M236.192 461.04C233.717 461.04 231.851 460.656 230.592 459.888C229.333 459.12 228.704 457.968 228.704 456.432C228.704 455.835 228.8 455.28 228.992 454.768C229.205 454.277 229.515 453.829 229.92 453.424C230.347 453.019 230.88 452.667 231.52 452.368L233.248 452.944C232.736 453.157 232.309 453.413 231.968 453.712C231.648 454.011 231.403 454.341 231.232 454.704C231.083 455.067 231.008 455.472 231.008 455.92C231.008 456.603 231.2 457.179 231.584 457.648C231.968 458.117 232.555 458.469 233.344 458.704C234.155 458.939 235.157 459.056 236.352 459.056C237.611 459.056 238.667 458.917 239.52 458.64C240.373 458.384 241.024 458.011 241.472 457.52C241.941 457.029 242.176 456.432 242.176 455.728C242.176 455.195 242.059 454.757 241.824 454.416C241.589 454.096 241.227 453.851 240.736 453.68C240.267 453.509 239.648 453.424 238.88 453.424H234.496C233.451 453.424 232.555 453.296 231.808 453.04C231.083 452.763 230.528 452.368 230.144 451.856C229.781 451.323 229.6 450.683 229.6 449.936C229.6 449.147 229.803 448.464 230.208 447.888C230.613 447.291 231.211 446.768 232 446.32L233.536 446.896C232.96 447.195 232.512 447.536 232.192 447.92C231.893 448.304 231.744 448.752 231.744 449.264C231.744 449.84 231.957 450.299 232.384 450.64C232.811 450.96 233.504 451.12 234.464 451.12H239.648C241.312 451.12 242.571 451.493 243.424 452.24C244.277 452.987 244.704 454.064 244.704 455.472C244.704 456.624 244.363 457.616 243.68 458.448C243.019 459.28 242.059 459.92 240.8 460.368C239.541 460.816 238.005 461.04 236.192 461.04ZM236.416 447.664C234.261 447.664 232.629 447.195 231.52 446.256C230.411 445.317 229.856 443.931 229.856 442.096C229.856 440.24 230.411 438.853 231.52 437.936C232.629 436.997 234.261 436.528 236.416 436.528C238.571 436.528 240.192 436.997 241.28 437.936C242.389 438.853 242.944 440.24 242.944 442.096C242.944 443.931 242.389 445.317 241.28 446.256C240.192 447.195 238.571 447.664 236.416 447.664ZM236.416 445.808C237.739 445.808 238.72 445.52 239.36 444.944C240 444.347 240.32 443.397 240.32 442.096C240.32 440.773 240 439.824 239.36 439.248C238.72 438.651 237.739 438.352 236.416 438.352C235.093 438.352 234.101 438.651 233.44 439.248C232.8 439.824 232.48 440.773 232.48 442.096C232.48 443.397 232.8 444.347 233.44 444.944C234.101 445.52 235.093 445.808 236.416 445.808ZM241.344 439.28L240.224 437.84C240.501 437.157 240.928 436.645 241.504 436.304C242.08 435.963 242.763 435.792 243.552 435.792C243.787 435.792 244 435.803 244.192 435.824C244.405 435.845 244.619 435.877 244.832 435.92L244.544 438.064C244.395 438.021 244.235 437.989 244.064 437.968C243.893 437.947 243.712 437.936 243.52 437.936C243.029 437.936 242.603 438.043 242.24 438.256C241.877 438.469 241.579 438.811 241.344 439.28ZM246.402 460.72V459.28H250.498V450.064L246.594 451.984L246.114 450.448L251.522 447.952H252.546V459.28H256.066V460.72H246.402Z" fill="#966A25"/>
<path d="M121.584 432.992L118.576 436.448C120.432 438.4 121.552 441.024 121.552 443.936C121.552 449.984 116.656 454.88 110.608 454.88C108.24 454.88 106.032 454.112 104.24 452.832L102.448 454.88H99.6L102.64 451.424C100.784 449.472 99.664 446.816 99.664 443.936C99.664 437.888 104.56 432.992 110.608 432.992C112.976 432.992 115.184 433.76 116.976 435.008L118.736 432.992H121.584ZM116.72 438.56L106.096 450.688C107.376 451.552 108.944 452.064 110.608 452.064C115.088 452.064 118.736 448.416 118.736 443.936C118.736 441.888 117.968 440 116.72 438.56ZM104.496 449.28L115.088 437.152C113.808 436.32 112.272 435.808 110.608 435.808C106.128 435.808 102.48 439.456 102.48 443.936C102.48 445.984 103.248 447.872 104.496 449.28Z" fill="#966A25"/>
<path d="M369.608 460.424C368.157 460.424 366.867 460.232 365.736 459.848C364.627 459.485 363.763 458.92 363.144 458.152C362.525 457.384 362.216 456.435 362.216 455.304C362.216 454.813 362.312 454.291 362.504 453.736C362.717 453.181 363.069 452.637 363.56 452.104C364.072 451.571 364.787 451.091 365.704 450.664L367.56 451.752C366.429 452.221 365.693 452.755 365.352 453.352C365.011 453.971 364.84 454.536 364.84 455.048C364.84 455.752 365.043 456.339 365.448 456.808C365.853 457.277 366.419 457.629 367.144 457.864C367.869 458.099 368.691 458.216 369.608 458.216C370.525 458.216 371.315 458.088 371.976 457.832C372.637 457.576 373.149 457.213 373.512 456.744C373.875 456.275 374.056 455.72 374.056 455.08C374.056 454.333 373.779 453.704 373.224 453.192C372.669 452.701 371.613 452.413 370.056 452.328C368.797 452.243 367.741 452.125 366.888 451.976C366.035 451.827 365.331 451.656 364.776 451.464C364.221 451.251 363.752 451.016 363.368 450.76C363.005 450.504 362.675 450.237 362.376 449.96V449.224L365.48 446.152L367.816 446.984L364.616 449.864L365.032 448.744C365.267 448.915 365.491 449.075 365.704 449.224C365.917 449.373 366.205 449.501 366.568 449.608C366.931 449.715 367.432 449.811 368.072 449.896C368.733 449.981 369.597 450.067 370.664 450.152C372.136 450.259 373.309 450.515 374.184 450.92C375.08 451.325 375.72 451.869 376.104 452.552C376.509 453.235 376.712 454.045 376.712 454.984C376.712 455.901 376.456 456.765 375.944 457.576C375.453 458.408 374.685 459.091 373.64 459.624C372.595 460.157 371.251 460.424 369.608 460.424ZM369.576 447.944C368.232 447.944 367.08 447.688 366.12 447.176C365.181 446.664 364.467 445.981 363.976 445.128C363.485 444.253 363.24 443.283 363.24 442.216C363.24 441.149 363.485 440.189 363.976 439.336C364.488 438.483 365.213 437.8 366.152 437.288C367.091 436.755 368.232 436.488 369.576 436.488C370.92 436.488 372.061 436.755 373 437.288C373.939 437.8 374.653 438.483 375.144 439.336C375.635 440.189 375.88 441.149 375.88 442.216C375.88 443.283 375.635 444.253 375.144 445.128C374.653 445.981 373.939 446.664 373 447.176C372.061 447.688 370.92 447.944 369.576 447.944ZM369.576 445.736C370.728 445.736 371.635 445.437 372.296 444.84C372.957 444.243 373.288 443.368 373.288 442.216C373.288 441.085 372.957 440.221 372.296 439.624C371.635 439.027 370.728 438.728 369.576 438.728C368.445 438.728 367.528 439.027 366.824 439.624C366.141 440.221 365.8 441.085 365.8 442.216C365.8 443.368 366.141 444.243 366.824 444.84C367.507 445.437 368.424 445.736 369.576 445.736ZM372.2 439.144L371.4 436.872H377.992V438.888L372.2 439.144ZM379.977 459V457.618C380.873 456.926 381.724 456.229 382.53 455.525C383.337 454.821 384.053 454.123 384.681 453.432C385.321 452.728 385.82 452.043 386.178 451.378C386.537 450.699 386.716 450.053 386.716 449.438C386.716 449.003 386.639 448.6 386.485 448.229C386.332 447.858 386.089 447.557 385.756 447.326C385.423 447.083 384.969 446.962 384.393 446.962C383.842 446.962 383.381 447.083 383.01 447.326C382.652 447.57 382.377 447.896 382.185 448.306C382.005 448.702 381.916 449.144 381.916 449.63H380.053C380.066 448.709 380.265 447.928 380.649 447.288C381.033 446.648 381.551 446.162 382.204 445.829C382.869 445.496 383.612 445.33 384.431 445.33C385.289 445.33 386.031 445.49 386.658 445.81C387.285 446.117 387.772 446.571 388.117 447.173C388.463 447.762 388.636 448.485 388.636 449.342C388.636 449.957 388.514 450.571 388.271 451.186C388.028 451.787 387.695 452.376 387.273 452.952C386.863 453.528 386.402 454.085 385.89 454.622C385.378 455.147 384.847 455.646 384.297 456.12C383.759 456.594 383.241 457.022 382.741 457.406H389.058V459H379.977Z" fill="#966A25"/>
<path d="M485.968 457.64C484.816 456.531 483.749 455.208 482.768 453.672C481.787 452.157 480.997 450.451 480.4 448.552C479.824 446.653 479.536 444.584 479.536 442.344C479.536 440.104 479.824 438.035 480.4 436.136C480.997 434.237 481.787 432.52 482.768 430.984C483.749 429.448 484.816 428.136 485.968 427.048H488.72V427.304C487.419 428.584 486.277 430.013 485.296 431.592C484.336 433.171 483.579 434.867 483.024 436.68C482.491 438.472 482.224 440.36 482.224 442.344C482.224 444.328 482.491 446.227 483.024 448.04C483.579 449.832 484.347 451.517 485.328 453.096C486.309 454.675 487.44 456.104 488.72 457.384V457.64H485.968ZM498.546 460.424C497.095 460.424 495.804 460.232 494.674 459.848C493.564 459.485 492.7 458.92 492.082 458.152C491.463 457.384 491.154 456.435 491.154 455.304C491.154 454.813 491.25 454.291 491.442 453.736C491.655 453.181 492.007 452.637 492.498 452.104C493.01 451.571 493.724 451.091 494.641 450.664L496.498 451.752C495.367 452.221 494.631 452.755 494.29 453.352C493.948 453.971 493.778 454.536 493.778 455.048C493.778 455.752 493.98 456.339 494.386 456.808C494.791 457.277 495.356 457.629 496.082 457.864C496.807 458.099 497.628 458.216 498.546 458.216C499.463 458.216 500.252 458.088 500.914 457.832C501.575 457.576 502.087 457.213 502.45 456.744C502.812 456.275 502.994 455.72 502.994 455.08C502.994 454.333 502.716 453.704 502.162 453.192C501.607 452.701 500.551 452.413 498.994 452.328C497.735 452.243 496.679 452.125 495.826 451.976C494.972 451.827 494.268 451.656 493.714 451.464C493.159 451.251 492.69 451.016 492.306 450.76C491.943 450.504 491.612 450.237 491.314 449.96V449.224L494.418 446.152L496.754 446.984L493.554 449.864L493.97 448.744C494.204 448.915 494.428 449.075 494.641 449.224C494.855 449.373 495.143 449.501 495.506 449.608C495.868 449.715 496.37 449.811 497.01 449.896C497.671 449.981 498.535 450.067 499.602 450.152C501.074 450.259 502.247 450.515 503.122 450.92C504.018 451.325 504.658 451.869 505.042 452.552C505.447 453.235 505.65 454.045 505.65 454.984C505.65 455.901 505.394 456.765 504.882 457.576C504.391 458.408 503.623 459.091 502.578 459.624C501.532 460.157 500.188 460.424 498.546 460.424ZM498.514 447.944C497.17 447.944 496.018 447.688 495.058 447.176C494.119 446.664 493.404 445.981 492.914 445.128C492.423 444.253 492.178 443.283 492.178 442.216C492.178 441.149 492.423 440.189 492.914 439.336C493.426 438.483 494.151 437.8 495.09 437.288C496.028 436.755 497.17 436.488 498.514 436.488C499.858 436.488 500.999 436.755 501.938 437.288C502.876 437.8 503.591 438.483 504.082 439.336C504.572 440.189 504.818 441.149 504.818 442.216C504.818 443.283 504.572 444.253 504.082 445.128C503.591 445.981 502.876 446.664 501.938 447.176C500.999 447.688 499.858 447.944 498.514 447.944ZM498.514 445.736C499.666 445.736 500.572 445.437 501.234 444.84C501.895 444.243 502.226 443.368 502.226 442.216C502.226 441.085 501.895 440.221 501.234 439.624C500.572 439.027 499.666 438.728 498.514 438.728C497.383 438.728 496.466 439.027 495.762 439.624C495.079 440.221 494.738 441.085 494.738 442.216C494.738 443.368 495.079 444.243 495.762 444.84C496.444 445.437 497.362 445.736 498.514 445.736ZM501.138 439.144L500.338 436.872H506.93V438.888L501.138 439.144ZM510.719 459V447.73L508.376 448.325V446.885L511.429 445.56H512.677V459H510.719ZM514.785 456.936L516.641 449.864H519.425L516.641 456.936H514.785ZM529.078 460.424C527.627 460.424 526.336 460.232 525.206 459.848C524.096 459.485 523.232 458.92 522.614 458.152C521.995 457.384 521.686 456.435 521.686 455.304C521.686 454.813 521.782 454.291 521.974 453.736C522.187 453.181 522.539 452.637 523.03 452.104C523.542 451.571 524.256 451.091 525.174 450.664L527.03 451.752C525.899 452.221 525.163 452.755 524.822 453.352C524.48 453.971 524.31 454.536 524.31 455.048C524.31 455.752 524.512 456.339 524.918 456.808C525.323 457.277 525.888 457.629 526.614 457.864C527.339 458.099 528.16 458.216 529.078 458.216C529.995 458.216 530.784 458.088 531.446 457.832C532.107 457.576 532.619 457.213 532.982 456.744C533.344 456.275 533.526 455.72 533.526 455.08C533.526 454.333 533.248 453.704 532.694 453.192C532.139 452.701 531.083 452.413 529.526 452.328C528.267 452.243 527.211 452.125 526.358 451.976C525.504 451.827 524.8 451.656 524.246 451.464C523.691 451.251 523.222 451.016 522.838 450.76C522.475 450.504 522.144 450.237 521.846 449.96V449.224L524.95 446.152L527.286 446.984L524.086 449.864L524.502 448.744C524.736 448.915 524.96 449.075 525.174 449.224C525.387 449.373 525.675 449.501 526.038 449.608C526.4 449.715 526.902 449.811 527.542 449.896C528.203 449.981 529.067 450.067 530.134 450.152C531.606 450.259 532.779 450.515 533.654 450.92C534.55 451.325 535.19 451.869 535.574 452.552C535.979 453.235 536.182 454.045 536.182 454.984C536.182 455.901 535.926 456.765 535.414 457.576C534.923 458.408 534.155 459.091 533.11 459.624C532.064 460.157 530.72 460.424 529.078 460.424ZM529.046 447.944C527.702 447.944 526.55 447.688 525.59 447.176C524.651 446.664 523.936 445.981 523.446 445.128C522.955 444.253 522.71 443.283 522.71 442.216C522.71 441.149 522.955 440.189 523.446 439.336C523.958 438.483 524.683 437.8 525.622 437.288C526.56 436.755 527.702 436.488 529.046 436.488C530.39 436.488 531.531 436.755 532.47 437.288C533.408 437.8 534.123 438.483 534.614 439.336C535.104 440.189 535.35 441.149 535.35 442.216C535.35 443.283 535.104 444.253 534.614 445.128C534.123 445.981 533.408 446.664 532.47 447.176C531.531 447.688 530.39 447.944 529.046 447.944ZM529.046 445.736C530.198 445.736 531.104 445.437 531.766 444.84C532.427 444.243 532.758 443.368 532.758 442.216C532.758 441.085 532.427 440.221 531.766 439.624C531.104 439.027 530.198 438.728 529.046 438.728C527.915 438.728 526.998 439.027 526.294 439.624C525.611 440.221 525.27 441.085 525.27 442.216C525.27 443.368 525.611 444.243 526.294 444.84C526.976 445.437 527.894 445.736 529.046 445.736ZM531.67 439.144L530.87 436.872H537.462V438.888L531.67 439.144ZM539.446 459V457.618C540.342 456.926 541.193 456.229 542 455.525C542.806 454.821 543.523 454.123 544.15 453.432C544.79 452.728 545.289 452.043 545.648 451.378C546.006 450.699 546.186 450.053 546.186 449.438C546.186 449.003 546.109 448.6 545.955 448.229C545.802 447.858 545.558 447.557 545.226 447.326C544.893 447.083 544.438 446.962 543.862 446.962C543.312 446.962 542.851 447.083 542.48 447.326C542.121 447.57 541.846 447.896 541.654 448.306C541.475 448.702 541.385 449.144 541.385 449.63H539.523C539.536 448.709 539.734 447.928 540.118 447.288C540.502 446.648 541.021 446.162 541.673 445.829C542.339 445.496 543.081 445.33 543.901 445.33C544.758 445.33 545.501 445.49 546.128 445.81C546.755 446.117 547.242 446.571 547.587 447.173C547.933 447.762 548.106 448.485 548.106 449.342C548.106 449.957 547.984 450.571 547.741 451.186C547.498 451.787 547.165 452.376 546.742 452.952C546.333 453.528 545.872 454.085 545.36 454.622C544.848 455.147 544.317 455.646 543.766 456.12C543.229 456.594 542.71 457.022 542.211 457.406H548.528V459H539.446ZM553.939 457.64H551.187V457.384C552.488 456.104 553.619 454.675 554.579 453.096C555.56 451.517 556.317 449.832 556.851 448.04C557.405 446.227 557.683 444.328 557.683 442.344C557.683 440.36 557.405 438.472 556.851 436.68C556.317 434.867 555.56 433.171 554.579 431.592C553.619 430.013 552.488 428.584 551.187 427.304V427.048H553.939C555.112 428.136 556.179 429.448 557.139 430.984C558.12 432.52 558.899 434.237 559.475 436.136C560.072 438.035 560.371 440.104 560.371 442.344C560.371 444.584 560.072 446.653 559.475 448.552C558.899 450.451 558.12 452.157 557.139 453.672C556.179 455.208 555.112 456.531 553.939 457.64Z" fill="#966A25"/>
<rect x="79" y="371" width="90" height="32" fill="#C8D8D9"/>
<rect x="200" y="319" width="90" height="52" fill="#B5BE30"/>
<rect x="200" y="371" width="90" height="32" fill="#C8D8D9"/>
<rect x="331" y="269" width="90" height="102" fill="#ACCFEF"/>
<rect x="331" y="371" width="90" height="32" fill="#C8D8D9"/>
<rect x="462" y="205" width="90" height="32" fill="#CEA637"/>
<rect x="462" y="237" width="90" height="82" fill="#ACCFEF"/>
<rect x="462" y="319" width="90" height="52" fill="#B5BE30"/>
<rect x="462" y="371" width="90" height="32" fill="#C8D8D9"/>
</svg>
