<svg width="1018" height="258" viewBox="0 0 1018 258" fill="none" xmlns="http://www.w3.org/2000/svg">
<rect x="183" width="90" height="32" fill="#CEA637"/>
<rect x="183" y="32" width="90" height="82" fill="#ACCFEF"/>
<rect x="183" y="114" width="90" height="52" fill="#B5BE30"/>
<rect x="183" y="166" width="90" height="32" fill="#C8D8D9"/>
<path d="M191.704 248V225.6H194.392V248H191.704ZM177.4 248V225.6H180.088V248H177.4ZM179.576 237.696V235.488H192.376V237.696H179.576ZM204.749 252.64C203.597 251.531 202.531 250.208 201.549 248.672C200.568 247.157 199.779 245.451 199.181 243.552C198.605 241.653 198.317 239.584 198.317 237.344C198.317 235.104 198.605 233.035 199.181 231.136C199.779 229.237 200.568 227.52 201.549 225.984C202.531 224.448 203.597 223.136 204.749 222.048H207.501V222.304C206.2 223.584 205.059 225.013 204.077 226.592C203.117 228.171 202.36 229.867 201.805 231.68C201.272 233.472 201.005 235.36 201.005 237.344C201.005 239.328 201.272 241.227 201.805 243.04C202.36 244.832 203.128 246.517 204.109 248.096C205.091 249.675 206.221 251.104 207.501 252.384V252.64H204.749ZM217.327 255.424C215.876 255.424 214.585 255.232 213.455 254.848C212.345 254.485 211.481 253.92 210.863 253.152C210.244 252.384 209.935 251.435 209.935 250.304C209.935 249.813 210.031 249.291 210.223 248.736C210.436 248.181 210.788 247.637 211.279 247.104C211.791 246.571 212.505 246.091 213.423 245.664L215.279 246.752C214.148 247.221 213.412 247.755 213.071 248.352C212.729 248.971 212.559 249.536 212.559 250.048C212.559 250.752 212.761 251.339 213.167 251.808C213.572 252.277 214.137 252.629 214.863 252.864C215.588 253.099 216.409 253.216 217.327 253.216C218.244 253.216 219.033 253.088 219.695 252.832C220.356 252.576 220.868 252.213 221.231 251.744C221.593 251.275 221.775 250.72 221.775 250.08C221.775 249.333 221.497 248.704 220.943 248.192C220.388 247.701 219.332 247.413 217.775 247.328C216.516 247.243 215.46 247.125 214.607 246.976C213.753 246.827 213.049 246.656 212.495 246.464C211.94 246.251 211.471 246.016 211.087 245.76C210.724 245.504 210.393 245.237 210.095 244.96V244.224L213.199 241.152L215.535 241.984L212.335 244.864L212.751 243.744C212.985 243.915 213.209 244.075 213.423 244.224C213.636 244.373 213.924 244.501 214.287 244.608C214.649 244.715 215.151 244.811 215.791 244.896C216.452 244.981 217.316 245.067 218.383 245.152C219.855 245.259 221.028 245.515 221.903 245.92C222.799 246.325 223.439 246.869 223.823 247.552C224.228 248.235 224.431 249.045 224.431 249.984C224.431 250.901 224.175 251.765 223.663 252.576C223.172 253.408 222.404 254.091 221.359 254.624C220.313 255.157 218.969 255.424 217.327 255.424ZM217.295 242.944C215.951 242.944 214.799 242.688 213.839 242.176C212.9 241.664 212.185 240.981 211.695 240.128C211.204 239.253 210.959 238.283 210.959 237.216C210.959 236.149 211.204 235.189 211.695 234.336C212.207 233.483 212.932 232.8 213.871 232.288C214.809 231.755 215.951 231.488 217.295 231.488C218.639 231.488 219.78 231.755 220.719 232.288C221.657 232.8 222.372 233.483 222.863 234.336C223.353 235.189 223.599 236.149 223.599 237.216C223.599 238.283 223.353 239.253 222.863 240.128C222.372 240.981 221.657 241.664 220.719 242.176C219.78 242.688 218.639 242.944 217.295 242.944ZM217.295 240.736C218.447 240.736 219.353 240.437 220.015 239.84C220.676 239.243 221.007 238.368 221.007 237.216C221.007 236.085 220.676 235.221 220.015 234.624C219.353 234.027 218.447 233.728 217.295 233.728C216.164 233.728 215.247 234.027 214.543 234.624C213.86 235.221 213.519 236.085 213.519 237.216C213.519 238.368 213.86 239.243 214.543 239.84C215.225 240.437 216.143 240.736 217.295 240.736ZM219.919 234.144L219.119 231.872H225.711V233.888L219.919 234.144ZM229.5 254V242.73L227.158 243.325V241.885L230.211 240.56H231.459V254H229.5ZM233.566 251.936L235.422 244.864H238.206L235.422 251.936H233.566ZM247.859 255.424C246.408 255.424 245.118 255.232 243.987 254.848C242.878 254.485 242.014 253.92 241.395 253.152C240.776 252.384 240.467 251.435 240.467 250.304C240.467 249.813 240.563 249.291 240.755 248.736C240.968 248.181 241.32 247.637 241.811 247.104C242.323 246.571 243.038 246.091 243.955 245.664L245.811 246.752C244.68 247.221 243.944 247.755 243.603 248.352C243.262 248.971 243.091 249.536 243.091 250.048C243.091 250.752 243.294 251.339 243.699 251.808C244.104 252.277 244.67 252.629 245.395 252.864C246.12 253.099 246.942 253.216 247.859 253.216C248.776 253.216 249.566 253.088 250.227 252.832C250.888 252.576 251.4 252.213 251.763 251.744C252.126 251.275 252.307 250.72 252.307 250.08C252.307 249.333 252.03 248.704 251.475 248.192C250.92 247.701 249.864 247.413 248.307 247.328C247.048 247.243 245.992 247.125 245.139 246.976C244.286 246.827 243.582 246.656 243.027 246.464C242.472 246.251 242.003 246.016 241.619 245.76C241.256 245.504 240.926 245.237 240.627 244.96V244.224L243.731 241.152L246.067 241.984L242.867 244.864L243.283 243.744C243.518 243.915 243.742 244.075 243.955 244.224C244.168 244.373 244.456 244.501 244.819 244.608C245.182 244.715 245.683 244.811 246.323 244.896C246.984 244.981 247.848 245.067 248.915 245.152C250.387 245.259 251.56 245.515 252.435 245.92C253.331 246.325 253.971 246.869 254.355 247.552C254.76 248.235 254.963 249.045 254.963 249.984C254.963 250.901 254.707 251.765 254.195 252.576C253.704 253.408 252.936 254.091 251.891 254.624C250.846 255.157 249.502 255.424 247.859 255.424ZM247.827 242.944C246.483 242.944 245.331 242.688 244.371 242.176C243.432 241.664 242.718 240.981 242.227 240.128C241.736 239.253 241.491 238.283 241.491 237.216C241.491 236.149 241.736 235.189 242.227 234.336C242.739 233.483 243.464 232.8 244.403 232.288C245.342 231.755 246.483 231.488 247.827 231.488C249.171 231.488 250.312 231.755 251.251 232.288C252.19 232.8 252.904 233.483 253.395 234.336C253.886 235.189 254.131 236.149 254.131 237.216C254.131 238.283 253.886 239.253 253.395 240.128C252.904 240.981 252.19 241.664 251.251 242.176C250.312 242.688 249.171 242.944 247.827 242.944ZM247.827 240.736C248.979 240.736 249.886 240.437 250.547 239.84C251.208 239.243 251.539 238.368 251.539 237.216C251.539 236.085 251.208 235.221 250.547 234.624C249.886 234.027 248.979 233.728 247.827 233.728C246.696 233.728 245.779 234.027 245.075 234.624C244.392 235.221 244.051 236.085 244.051 237.216C244.051 238.368 244.392 239.243 245.075 239.84C245.758 240.437 246.675 240.736 247.827 240.736ZM250.451 234.144L249.651 231.872H256.243V233.888L250.451 234.144ZM258.228 254V252.618C259.124 251.926 259.975 251.229 260.781 250.525C261.588 249.821 262.304 249.123 262.932 248.432C263.572 247.728 264.071 247.043 264.429 246.378C264.788 245.699 264.967 245.053 264.967 244.438C264.967 244.003 264.89 243.6 264.736 243.229C264.583 242.858 264.34 242.557 264.007 242.326C263.674 242.083 263.22 241.962 262.644 241.962C262.093 241.962 261.632 242.083 261.261 242.326C260.903 242.57 260.628 242.896 260.436 243.306C260.256 243.702 260.167 244.144 260.167 244.63H258.304C258.317 243.709 258.516 242.928 258.9 242.288C259.284 241.648 259.802 241.162 260.455 240.829C261.12 240.496 261.863 240.33 262.682 240.33C263.54 240.33 264.282 240.49 264.909 240.81C265.536 241.117 266.023 241.571 266.368 242.173C266.714 242.762 266.887 243.485 266.887 244.342C266.887 244.957 266.765 245.571 266.522 246.186C266.279 246.787 265.946 247.376 265.524 247.952C265.114 248.528 264.653 249.085 264.141 249.622C263.629 250.147 263.098 250.646 262.548 251.12C262.01 251.594 261.492 252.022 260.992 252.406H267.309V254H258.228ZM272.72 252.64H269.968V252.384C271.269 251.104 272.4 249.675 273.36 248.096C274.341 246.517 275.099 244.832 275.632 243.04C276.187 241.227 276.464 239.328 276.464 237.344C276.464 235.36 276.187 233.472 275.632 231.68C275.099 229.867 274.341 228.171 273.36 226.592C272.4 225.013 271.269 223.584 269.968 222.304V222.048H272.72C273.893 223.136 274.96 224.448 275.92 225.984C276.901 227.52 277.68 229.237 278.256 231.136C278.853 233.035 279.152 235.104 279.152 237.344C279.152 239.584 278.853 241.653 278.256 243.552C277.68 245.451 276.901 247.157 275.92 248.672C274.96 250.208 273.893 251.531 272.72 252.64Z" fill="#966A25"/>
<path d="M309 101H345" stroke="#966A25" stroke-width="4"/>
<path d="M491 101H527" stroke="#966A25" stroke-width="4"/>
<rect x="553" y="32" width="90" height="102" fill="#ACCFEF"/>
<rect x="553" y="134" width="90" height="32" fill="#C8D8D9"/>
<path d="M564.24 215V192.6H566.992V203.896H578.736V192.6H581.488V215H578.736V206.392H566.992V215H564.24ZM586.054 206.52C586.054 204.429 586.193 202.499 586.47 200.728C586.747 198.936 587.163 197.357 587.718 195.992C588.294 194.605 589.009 193.485 589.862 192.632C590.737 191.779 591.771 191.235 592.966 191V193.112C592.177 193.389 591.483 193.891 590.886 194.616C590.31 195.32 589.83 196.237 589.446 197.368C589.062 198.499 588.774 199.832 588.582 201.368C588.411 202.883 588.326 204.6 588.326 206.52C588.326 208.44 588.411 210.168 588.582 211.704C588.774 213.219 589.062 214.541 589.446 215.672C589.83 216.803 590.31 217.72 590.886 218.424C591.483 219.149 592.177 219.651 592.966 219.928V222.04C591.771 221.805 590.737 221.261 589.862 220.408C589.009 219.555 588.294 218.435 587.718 217.048C587.163 215.683 586.747 214.115 586.47 212.344C586.193 210.552 586.054 208.611 586.054 206.52ZM601.848 222.04C599.374 222.04 597.507 221.656 596.248 220.888C594.99 220.12 594.36 218.968 594.36 217.432C594.36 216.835 594.456 216.28 594.648 215.768C594.862 215.277 595.171 214.829 595.576 214.424C596.003 214.019 596.536 213.667 597.176 213.368L598.904 213.944C598.392 214.157 597.966 214.413 597.624 214.712C597.304 215.011 597.059 215.341 596.888 215.704C596.739 216.067 596.664 216.472 596.664 216.92C596.664 217.603 596.856 218.179 597.24 218.648C597.624 219.117 598.211 219.469 599 219.704C599.811 219.939 600.814 220.056 602.008 220.056C603.267 220.056 604.323 219.917 605.176 219.64C606.03 219.384 606.68 219.011 607.128 218.52C607.598 218.029 607.832 217.432 607.832 216.728C607.832 216.195 607.715 215.757 607.48 215.416C607.246 215.096 606.883 214.851 606.392 214.68C605.923 214.509 605.304 214.424 604.536 214.424H600.152C599.107 214.424 598.211 214.296 597.464 214.04C596.739 213.763 596.184 213.368 595.8 212.856C595.438 212.323 595.256 211.683 595.256 210.936C595.256 210.147 595.459 209.464 595.864 208.888C596.27 208.291 596.867 207.768 597.656 207.32L599.192 207.896C598.616 208.195 598.168 208.536 597.848 208.92C597.55 209.304 597.4 209.752 597.4 210.264C597.4 210.84 597.614 211.299 598.04 211.64C598.467 211.96 599.16 212.12 600.12 212.12H605.304C606.968 212.12 608.227 212.493 609.08 213.24C609.934 213.987 610.36 215.064 610.36 216.472C610.36 217.624 610.019 218.616 609.336 219.448C608.675 220.28 607.715 220.92 606.456 221.368C605.198 221.816 603.662 222.04 601.848 222.04ZM602.072 208.664C599.918 208.664 598.286 208.195 597.176 207.256C596.067 206.317 595.512 204.931 595.512 203.096C595.512 201.24 596.067 199.853 597.176 198.936C598.286 197.997 599.918 197.528 602.072 197.528C604.227 197.528 605.848 197.997 606.936 198.936C608.046 199.853 608.6 201.24 608.6 203.096C608.6 204.931 608.046 206.317 606.936 207.256C605.848 208.195 604.227 208.664 602.072 208.664ZM602.072 206.808C603.395 206.808 604.376 206.52 605.016 205.944C605.656 205.347 605.976 204.397 605.976 203.096C605.976 201.773 605.656 200.824 605.016 200.248C604.376 199.651 603.395 199.352 602.072 199.352C600.75 199.352 599.758 199.651 599.096 200.248C598.456 200.824 598.136 201.773 598.136 203.096C598.136 204.397 598.456 205.347 599.096 205.944C599.758 206.52 600.75 206.808 602.072 206.808ZM607 200.28L605.88 198.84C606.158 198.157 606.584 197.645 607.16 197.304C607.736 196.963 608.419 196.792 609.208 196.792C609.443 196.792 609.656 196.803 609.848 196.824C610.062 196.845 610.275 196.877 610.488 196.92L610.2 199.064C610.051 199.021 609.891 198.989 609.72 198.968C609.55 198.947 609.368 198.936 609.176 198.936C608.686 198.936 608.259 199.043 607.896 199.256C607.534 199.469 607.235 199.811 607 200.28ZM612.698 221.72L612.634 220.472C613.765 219.555 614.704 218.733 615.45 218.008C616.218 217.283 616.837 216.611 617.306 215.992C617.776 215.395 618.106 214.851 618.298 214.36C618.512 213.869 618.618 213.4 618.618 212.952C618.618 212.205 618.416 211.608 618.01 211.16C617.626 210.712 617.061 210.488 616.314 210.488C615.802 210.488 615.301 210.552 614.81 210.68C614.341 210.808 613.85 211.032 613.338 211.352L612.73 209.944C613.114 209.688 613.52 209.475 613.946 209.304C614.394 209.133 614.853 209.005 615.322 208.92C615.792 208.835 616.25 208.792 616.698 208.792C617.552 208.792 618.266 208.941 618.842 209.24C619.418 209.539 619.856 209.965 620.154 210.52C620.474 211.075 620.634 211.757 620.634 212.568C620.634 213.08 620.56 213.603 620.41 214.136C620.261 214.648 619.994 215.192 619.61 215.768C619.248 216.365 618.725 217.037 618.042 217.784C617.36 218.531 616.496 219.384 615.45 220.344H622.01V221.72H612.698ZM624.201 219.928C624.99 219.651 625.673 219.149 626.249 218.424C626.825 217.72 627.305 216.803 627.689 215.672C628.094 214.541 628.382 213.219 628.553 211.704C628.745 210.168 628.841 208.44 628.841 206.52C628.841 204.6 628.745 202.883 628.553 201.368C628.382 199.832 628.094 198.499 627.689 197.368C627.305 196.237 626.825 195.32 626.249 194.616C625.673 193.891 624.99 193.389 624.201 193.112V191C625.374 191.235 626.398 191.779 627.273 192.632C628.148 193.485 628.862 194.605 629.417 195.992C629.993 197.357 630.42 198.936 630.697 200.728C630.974 202.499 631.113 204.429 631.113 206.52C631.113 208.611 630.974 210.552 630.697 212.344C630.42 214.115 629.993 215.683 629.417 217.048C628.862 218.435 628.148 219.555 627.273 220.408C626.398 221.261 625.374 221.805 624.201 222.04V219.928Z" fill="#966A25"/>
<path d="M671 100H707" stroke="#966A25" stroke-width="4"/>
<path d="M689 118V82" stroke="#966A25" stroke-width="4"/>
<rect x="725" y="84" width="90" height="32" fill="#C8D8D9"/>
<path d="M750.204 166V143.6H752.892V166H750.204ZM735.9 166V143.6H738.588V166H735.9ZM738.076 155.696V153.488H750.876V155.696H738.076ZM763.249 170.64C762.097 169.531 761.031 168.208 760.049 166.672C759.068 165.157 758.279 163.451 757.681 161.552C757.105 159.653 756.817 157.584 756.817 155.344C756.817 153.104 757.105 151.035 757.681 149.136C758.279 147.237 759.068 145.52 760.049 143.984C761.031 142.448 762.097 141.136 763.249 140.048H766.001V140.304C764.7 141.584 763.559 143.013 762.577 144.592C761.617 146.171 760.86 147.867 760.305 149.68C759.772 151.472 759.505 153.36 759.505 155.344C759.505 157.328 759.772 159.227 760.305 161.04C760.86 162.832 761.628 164.517 762.609 166.096C763.591 167.675 764.721 169.104 766.001 170.384V170.64H763.249ZM770.291 166.352L768.851 164.912L771.635 162.128C769.907 160.08 768.883 157.456 768.883 154.576C768.883 148.08 774.131 142.832 780.627 142.832C783.507 142.832 786.131 143.856 788.179 145.584L790.963 142.8L792.403 144.24L789.619 147.024C791.347 149.072 792.371 151.696 792.371 154.576C792.371 161.072 787.059 166.32 780.627 166.32C777.747 166.32 775.123 165.296 773.075 163.568L770.291 166.352ZM771.187 154.576C771.187 156.816 771.955 158.864 773.267 160.496L786.547 147.216C784.915 145.904 782.867 145.136 780.627 145.136C775.411 145.136 771.187 149.36 771.187 154.576ZM780.627 164.016C785.843 164.016 790.067 159.792 790.067 154.576C790.067 152.336 789.299 150.288 787.987 148.656L774.707 161.936C776.339 163.248 778.387 164.016 780.627 164.016ZM797.999 170.64H795.247V170.384C796.549 169.104 797.679 167.675 798.639 166.096C799.621 164.517 800.378 162.832 800.911 161.04C801.466 159.227 801.743 157.328 801.743 155.344C801.743 153.36 801.466 151.472 800.911 149.68C800.378 147.867 799.621 146.171 798.639 144.592C797.679 143.013 796.549 141.584 795.247 140.304V140.048H797.999C799.173 141.136 800.239 142.448 801.199 143.984C802.181 145.52 802.959 147.237 803.535 149.136C804.133 151.035 804.431 153.104 804.431 155.344C804.431 157.584 804.133 159.653 803.535 161.552C802.959 163.451 802.181 165.157 801.199 166.672C800.239 168.208 799.173 169.531 797.999 170.64Z" fill="#966A25"/>
<rect x="928" y="85" width="90" height="32" fill="#CEA637"/>
<path d="M2.24 112V88.96H4.928V98.592C5.46133 97.632 6.208 96.8747 7.168 96.32C8.14933 95.7653 9.216 95.488 10.368 95.488C11.6053 95.488 12.6827 95.744 13.6 96.256C14.5173 96.7467 15.2213 97.504 15.712 98.528C16.2027 99.552 16.448 100.843 16.448 102.4V112H13.792V102.688C13.792 101.067 13.4507 99.8507 12.768 99.04C12.0853 98.208 11.0933 97.792 9.792 97.792C8.87467 97.792 8.04267 98.016 7.296 98.464C6.57067 98.912 5.99467 99.552 5.568 100.384C5.14133 101.216 4.928 102.24 4.928 103.456V112H2.24ZM26.3743 116.64C25.2223 115.531 24.1556 114.208 23.1743 112.672C22.1929 111.157 21.4036 109.451 20.8063 107.552C20.2303 105.653 19.9423 103.584 19.9423 101.344C19.9423 99.104 20.2303 97.0347 20.8063 95.136C21.4036 93.2373 22.1929 91.52 23.1743 89.984C24.1556 88.448 25.2223 87.136 26.3743 86.048H29.1263V86.304C27.8249 87.584 26.6836 89.0133 25.7023 90.592C24.7423 92.1707 23.9849 93.8667 23.4303 95.68C22.8969 97.472 22.6302 99.36 22.6302 101.344C22.6302 103.328 22.8969 105.227 23.4303 107.04C23.9849 108.832 24.7529 110.517 25.7343 112.096C26.7156 113.675 27.8463 115.104 29.1263 116.384V116.64H26.3743ZM38.9518 119.424C37.5011 119.424 36.2104 119.232 35.0798 118.848C33.9704 118.485 33.1064 117.92 32.4878 117.152C31.8691 116.384 31.5598 115.435 31.5598 114.304C31.5598 113.813 31.6558 113.291 31.8478 112.736C32.0611 112.181 32.4131 111.637 32.9038 111.104C33.4158 110.571 34.1304 110.091 35.0477 109.664L36.9038 110.752C35.7731 111.221 35.0371 111.755 34.6958 112.352C34.3544 112.971 34.1838 113.536 34.1838 114.048C34.1838 114.752 34.3864 115.339 34.7918 115.808C35.1971 116.277 35.7624 116.629 36.4878 116.864C37.2131 117.099 38.0344 117.216 38.9518 117.216C39.8691 117.216 40.6584 117.088 41.3198 116.832C41.9811 116.576 42.4931 116.213 42.8558 115.744C43.2184 115.275 43.3998 114.72 43.3998 114.08C43.3998 113.333 43.1224 112.704 42.5678 112.192C42.0131 111.701 40.9571 111.413 39.3998 111.328C38.1411 111.243 37.0851 111.125 36.2318 110.976C35.3784 110.827 34.6744 110.656 34.1198 110.464C33.5651 110.251 33.0958 110.016 32.7118 109.76C32.3491 109.504 32.0184 109.237 31.7198 108.96V108.224L34.8238 105.152L37.1598 105.984L33.9598 108.864L34.3758 107.744C34.6104 107.915 34.8344 108.075 35.0477 108.224C35.2611 108.373 35.5491 108.501 35.9118 108.608C36.2744 108.715 36.7758 108.811 37.4158 108.896C38.0771 108.981 38.9411 109.067 40.0078 109.152C41.4798 109.259 42.6531 109.515 43.5278 109.92C44.4238 110.325 45.0638 110.869 45.4478 111.552C45.8531 112.235 46.0558 113.045 46.0558 113.984C46.0558 114.901 45.7998 115.765 45.2878 116.576C44.7971 117.408 44.0291 118.091 42.9838 118.624C41.9384 119.157 40.5944 119.424 38.9518 119.424ZM38.9198 106.944C37.5758 106.944 36.4238 106.688 35.4638 106.176C34.5251 105.664 33.8104 104.981 33.3198 104.128C32.8291 103.253 32.5838 102.283 32.5838 101.216C32.5838 100.149 32.8291 99.1893 33.3198 98.336C33.8318 97.4827 34.5571 96.8 35.4958 96.288C36.4344 95.7547 37.5758 95.488 38.9198 95.488C40.2638 95.488 41.4051 95.7547 42.3438 96.288C43.2824 96.8 43.9971 97.4827 44.4878 98.336C44.9784 99.1893 45.2238 100.149 45.2238 101.216C45.2238 102.283 44.9784 103.253 44.4878 104.128C43.9971 104.981 43.2824 105.664 42.3438 106.176C41.4051 106.688 40.2638 106.944 38.9198 106.944ZM38.9198 104.736C40.0718 104.736 40.9784 104.437 41.6398 103.84C42.3011 103.243 42.6318 102.368 42.6318 101.216C42.6318 100.085 42.3011 99.2213 41.6398 98.624C40.9784 98.0267 40.0718 97.728 38.9198 97.728C37.7891 97.728 36.8718 98.0267 36.1678 98.624C35.4851 99.2213 35.1438 100.085 35.1438 101.216C35.1438 102.368 35.4851 103.243 36.1678 103.84C36.8504 104.437 37.7678 104.736 38.9198 104.736ZM41.5438 98.144L40.7438 95.872H47.3358V97.888L41.5438 98.144ZM51.1251 118V106.73L48.7827 107.325V105.885L51.8355 104.56H53.0835V118H51.1251ZM55.1915 115.936L57.0475 108.864H59.8315L57.0475 115.936H55.1915ZM69.484 119.424C68.0333 119.424 66.7427 119.232 65.612 118.848C64.5027 118.485 63.6387 117.92 63.02 117.152C62.4013 116.384 62.092 115.435 62.092 114.304C62.092 113.813 62.188 113.291 62.38 112.736C62.5933 112.181 62.9453 111.637 63.436 111.104C63.948 110.571 64.6627 110.091 65.58 109.664L67.436 110.752C66.3053 111.221 65.5693 111.755 65.228 112.352C64.8867 112.971 64.716 113.536 64.716 114.048C64.716 114.752 64.9187 115.339 65.324 115.808C65.7293 116.277 66.2947 116.629 67.02 116.864C67.7453 117.099 68.5667 117.216 69.484 117.216C70.4013 117.216 71.1907 117.088 71.852 116.832C72.5133 116.576 73.0253 116.213 73.388 115.744C73.7507 115.275 73.932 114.72 73.932 114.08C73.932 113.333 73.6547 112.704 73.1 112.192C72.5453 111.701 71.4893 111.413 69.932 111.328C68.6733 111.243 67.6173 111.125 66.764 110.976C65.9107 110.827 65.2067 110.656 64.652 110.464C64.0973 110.251 63.628 110.016 63.244 109.76C62.8813 109.504 62.5507 109.237 62.252 108.96V108.224L65.356 105.152L67.692 105.984L64.492 108.864L64.908 107.744C65.1427 107.915 65.3667 108.075 65.58 108.224C65.7933 108.373 66.0813 108.501 66.444 108.608C66.8067 108.715 67.308 108.811 67.948 108.896C68.6093 108.981 69.4733 109.067 70.54 109.152C72.012 109.259 73.1853 109.515 74.06 109.92C74.956 110.325 75.596 110.869 75.98 111.552C76.3853 112.235 76.588 113.045 76.588 113.984C76.588 114.901 76.332 115.765 75.82 116.576C75.3293 117.408 74.5613 118.091 73.516 118.624C72.4707 119.157 71.1267 119.424 69.484 119.424ZM69.452 106.944C68.108 106.944 66.956 106.688 65.996 106.176C65.0573 105.664 64.3427 104.981 63.852 104.128C63.3613 103.253 63.116 102.283 63.116 101.216C63.116 100.149 63.3613 99.1893 63.852 98.336C64.364 97.4827 65.0893 96.8 66.028 96.288C66.9667 95.7547 68.108 95.488 69.452 95.488C70.796 95.488 71.9373 95.7547 72.876 96.288C73.8147 96.8 74.5293 97.4827 75.02 98.336C75.5107 99.1893 75.756 100.149 75.756 101.216C75.756 102.283 75.5107 103.253 75.02 104.128C74.5293 104.981 73.8147 105.664 72.876 106.176C71.9373 106.688 70.796 106.944 69.452 106.944ZM69.452 104.736C70.604 104.736 71.5107 104.437 72.172 103.84C72.8333 103.243 73.164 102.368 73.164 101.216C73.164 100.085 72.8333 99.2213 72.172 98.624C71.5107 98.0267 70.604 97.728 69.452 97.728C68.3213 97.728 67.404 98.0267 66.7 98.624C66.0173 99.2213 65.676 100.085 65.676 101.216C65.676 102.368 66.0173 103.243 66.7 103.84C67.3827 104.437 68.3 104.736 69.452 104.736ZM72.076 98.144L71.276 95.872H77.868V97.888L72.076 98.144ZM79.8525 118V116.618C80.7485 115.926 81.5997 115.229 82.4061 114.525C83.2125 113.821 83.9294 113.123 84.5566 112.432C85.1965 111.728 85.6957 111.043 86.0542 110.378C86.4126 109.699 86.5918 109.053 86.5918 108.438C86.5918 108.003 86.515 107.6 86.3614 107.229C86.2078 106.858 85.9645 106.557 85.6318 106.326C85.299 106.083 84.8445 105.962 84.2685 105.962C83.7181 105.962 83.2573 106.083 82.8861 106.326C82.5277 106.57 82.2525 106.896 82.0605 107.306C81.8813 107.702 81.7917 108.144 81.7917 108.63H79.9293C79.9421 107.709 80.1405 106.928 80.5245 106.288C80.9085 105.648 81.4269 105.162 82.0797 104.829C82.7453 104.496 83.4877 104.33 84.3069 104.33C85.1645 104.33 85.9069 104.49 86.5341 104.81C87.1614 105.117 87.6478 105.571 87.9934 106.173C88.339 106.762 88.5118 107.485 88.5118 108.342C88.5118 108.957 88.3902 109.571 88.147 110.186C87.9038 110.787 87.571 111.376 87.1485 111.952C86.7389 112.528 86.2781 113.085 85.7661 113.622C85.2542 114.147 84.723 114.646 84.1725 115.12C83.6349 115.594 83.1165 116.022 82.6173 116.406H88.9341V118H79.8525ZM94.345 116.64H91.593V116.384C92.8943 115.104 94.025 113.675 94.985 112.096C95.9663 110.517 96.7237 108.832 97.257 107.04C97.8117 105.227 98.089 103.328 98.089 101.344C98.089 99.36 97.8117 97.472 97.257 95.68C96.7237 93.8667 95.9663 92.1707 94.985 90.592C94.025 89.0133 92.8943 87.584 91.593 86.304V86.048H94.345C95.5183 87.136 96.585 88.448 97.545 89.984C98.5263 91.52 99.305 93.2373 99.881 95.136C100.478 97.0347 100.777 99.104 100.777 101.344C100.777 103.584 100.478 105.653 99.881 107.552C99.305 109.451 98.5263 111.157 97.545 112.672C96.585 114.208 95.5183 115.531 94.345 116.64Z" fill="#966A25"/>
<path d="M860 108H896" stroke="#966A25" stroke-width="4"/>
<path d="M860 93H896" stroke="#966A25" stroke-width="4"/>
<path d="M121 108H157" stroke="#966A25" stroke-width="4"/>
<path d="M121 93H157" stroke="#966A25" stroke-width="4"/>
<path d="M384.24 181V158.6H386.992V169.896H398.736V158.6H401.488V181H398.736V172.392H386.992V181H384.24ZM406.054 172.52C406.054 170.429 406.193 168.499 406.47 166.728C406.747 164.936 407.163 163.357 407.718 161.992C408.294 160.605 409.009 159.485 409.862 158.632C410.737 157.779 411.771 157.235 412.966 157V159.112C412.177 159.389 411.483 159.891 410.886 160.616C410.31 161.32 409.83 162.237 409.446 163.368C409.062 164.499 408.774 165.832 408.582 167.368C408.411 168.883 408.326 170.6 408.326 172.52C408.326 174.44 408.411 176.168 408.582 177.704C408.774 179.219 409.062 180.541 409.446 181.672C409.83 182.803 410.31 183.72 410.886 184.424C411.483 185.149 412.177 185.651 412.966 185.928V188.04C411.771 187.805 410.737 187.261 409.862 186.408C409.009 185.555 408.294 184.435 407.718 183.048C407.163 181.683 406.747 180.115 406.47 178.344C406.193 176.552 406.054 174.611 406.054 172.52ZM421.848 188.04C419.374 188.04 417.507 187.656 416.248 186.888C414.99 186.12 414.36 184.968 414.36 183.432C414.36 182.835 414.456 182.28 414.648 181.768C414.862 181.277 415.171 180.829 415.576 180.424C416.003 180.019 416.536 179.667 417.176 179.368L418.904 179.944C418.392 180.157 417.966 180.413 417.624 180.712C417.304 181.011 417.059 181.341 416.888 181.704C416.739 182.067 416.664 182.472 416.664 182.92C416.664 183.603 416.856 184.179 417.24 184.648C417.624 185.117 418.211 185.469 419 185.704C419.811 185.939 420.814 186.056 422.008 186.056C423.267 186.056 424.323 185.917 425.176 185.64C426.03 185.384 426.68 185.011 427.128 184.52C427.598 184.029 427.832 183.432 427.832 182.728C427.832 182.195 427.715 181.757 427.48 181.416C427.246 181.096 426.883 180.851 426.392 180.68C425.923 180.509 425.304 180.424 424.536 180.424H420.152C419.107 180.424 418.211 180.296 417.464 180.04C416.739 179.763 416.184 179.368 415.8 178.856C415.438 178.323 415.256 177.683 415.256 176.936C415.256 176.147 415.459 175.464 415.864 174.888C416.27 174.291 416.867 173.768 417.656 173.32L419.192 173.896C418.616 174.195 418.168 174.536 417.848 174.92C417.55 175.304 417.4 175.752 417.4 176.264C417.4 176.84 417.614 177.299 418.04 177.64C418.467 177.96 419.16 178.12 420.12 178.12H425.304C426.968 178.12 428.227 178.493 429.08 179.24C429.934 179.987 430.36 181.064 430.36 182.472C430.36 183.624 430.019 184.616 429.336 185.448C428.675 186.28 427.715 186.92 426.456 187.368C425.198 187.816 423.662 188.04 421.848 188.04ZM422.072 174.664C419.918 174.664 418.286 174.195 417.176 173.256C416.067 172.317 415.512 170.931 415.512 169.096C415.512 167.24 416.067 165.853 417.176 164.936C418.286 163.997 419.918 163.528 422.072 163.528C424.227 163.528 425.848 163.997 426.936 164.936C428.046 165.853 428.6 167.24 428.6 169.096C428.6 170.931 428.046 172.317 426.936 173.256C425.848 174.195 424.227 174.664 422.072 174.664ZM422.072 172.808C423.395 172.808 424.376 172.52 425.016 171.944C425.656 171.347 425.976 170.397 425.976 169.096C425.976 167.773 425.656 166.824 425.016 166.248C424.376 165.651 423.395 165.352 422.072 165.352C420.75 165.352 419.758 165.651 419.096 166.248C418.456 166.824 418.136 167.773 418.136 169.096C418.136 170.397 418.456 171.347 419.096 171.944C419.758 172.52 420.75 172.808 422.072 172.808ZM427 166.28L425.88 164.84C426.158 164.157 426.584 163.645 427.16 163.304C427.736 162.963 428.419 162.792 429.208 162.792C429.443 162.792 429.656 162.803 429.848 162.824C430.062 162.845 430.275 162.877 430.488 162.92L430.2 165.064C430.051 165.021 429.891 164.989 429.72 164.968C429.55 164.947 429.368 164.936 429.176 164.936C428.686 164.936 428.259 165.043 427.896 165.256C427.534 165.469 427.235 165.811 427 166.28ZM432.058 187.72V186.28H436.154V177.064L432.25 178.984L431.77 177.448L437.178 174.952H438.202V186.28H441.722V187.72H432.058ZM443.107 185.928C443.897 185.651 444.579 185.149 445.155 184.424C445.731 183.72 446.211 182.803 446.595 181.672C447.001 180.541 447.289 179.219 447.459 177.704C447.651 176.168 447.747 174.44 447.747 172.52C447.747 170.6 447.651 168.883 447.459 167.368C447.289 165.832 447.001 164.499 446.595 163.368C446.211 162.237 445.731 161.32 445.155 160.616C444.579 159.891 443.897 159.389 443.107 159.112V157C444.281 157.235 445.305 157.779 446.179 158.632C447.054 159.485 447.769 160.605 448.323 161.992C448.899 163.357 449.326 164.936 449.603 166.728C449.881 168.499 450.019 170.429 450.019 172.52C450.019 174.611 449.881 176.552 449.603 178.344C449.326 180.115 448.899 181.683 448.323 183.048C447.769 184.435 447.054 185.555 446.179 186.408C445.305 187.261 444.281 187.805 443.107 188.04V185.928Z" fill="#966A25"/>
<rect x="373" y="54" width="90" height="52" fill="#B5BE30"/>
<rect x="373" y="106" width="90" height="32" fill="#C8D8D9"/>
</svg>
